<?xml version="1.0" encoding="UTF-8" standalone="no"?>
<!DOCTYPE svg PUBLIC "-//W3C//DTD SVG 1.1//EN"
 "http://www.w3.org/Graphics/SVG/1.1/DTD/svg11.dtd">
<!-- Generated by graphviz version 12.0.0 (20240704.0754)
 -->
<!-- Title: dependency&#45;cruiser output Pages: 1 -->
<svg width="1493pt" height="744pt"
 viewBox="0.00 0.00 1492.50 744.00" xmlns="http://www.w3.org/2000/svg" xmlns:xlink="http://www.w3.org/1999/xlink">
<g id="graph0" class="graph" transform="scale(1 1) rotate(0) translate(4 740)">
<title>dependency&#45;cruiser output</title>
<polygon fill="white" stroke="none" points="-4,4 -4,-740 1488.5,-740 1488.5,4 -4,4"/>
<g id="clust1" class="cluster">
<title>cluster_src</title>
<path fill="#ffffff" stroke="black" stroke-width="2" d="M20,-8C20,-8 1464.5,-8 1464.5,-8 1470.5,-8 1476.5,-14 1476.5,-20 1476.5,-20 1476.5,-716 1476.5,-716 1476.5,-722 1470.5,-728 1464.5,-728 1464.5,-728 20,-728 20,-728 14,-728 8,-722 8,-716 8,-716 8,-20 8,-20 8,-14 14,-8 20,-8"/>
<text text-anchor="middle" x="742.25" y="-715.45" font-family="Helvetica,sans-Serif" font-weight="bold" font-size="9.00">src</text>
</g>
<g id="clust2" class="cluster">
<title>cluster_src/app</title>
<path fill="#ffffff" stroke="black" stroke-width="2" d="M28,-464C28,-464 177.12,-464 177.12,-464 183.12,-464 189.12,-470 189.12,-476 189.12,-476 189.12,-624 189.12,-624 189.12,-630 183.12,-636 177.12,-636 177.12,-636 28,-636 28,-636 22,-636 16,-630 16,-624 16,-624 16,-476 16,-476 16,-470 22,-464 28,-464"/>
<text text-anchor="middle" x="102.56" y="-623.45" font-family="Helvetica,sans-Serif" font-weight="bold" font-size="9.00">app</text>
</g>
<g id="clust3" class="cluster">
<title>cluster_src/app/layouts</title>
<path fill="#ffffff" stroke="black" stroke-width="2" d="M103.38,-558C103.38,-558 169.12,-558 169.12,-558 175.12,-558 181.12,-564 181.12,-570 181.12,-570 181.12,-598 181.12,-598 181.12,-604 175.12,-610 169.12,-610 169.12,-610 103.38,-610 103.38,-610 97.38,-610 91.38,-604 91.38,-598 91.38,-598 91.38,-570 91.38,-570 91.38,-564 97.38,-558 103.38,-558"/>
<text text-anchor="middle" x="136.25" y="-597.45" font-family="Helvetica,sans-Serif" font-weight="bold" font-size="9.00">layouts</text>
</g>
<g id="clust4" class="cluster">
<title>cluster_src/entities</title>
<path fill="#ffffff" stroke="black" stroke-width="2" d="M302.38,-16C302.38,-16 1108,-16 1108,-16 1114,-16 1120,-22 1120,-28 1120,-28 1120,-538 1120,-538 1120,-544 1114,-550 1108,-550 1108,-550 302.38,-550 302.38,-550 296.38,-550 290.38,-544 290.38,-538 290.38,-538 290.38,-28 290.38,-28 290.38,-22 296.38,-16 302.38,-16"/>
<text text-anchor="middle" x="705.19" y="-537.45" font-family="Helvetica,sans-Serif" font-weight="bold" font-size="9.00">entities</text>
</g>
<g id="clust5" class="cluster">
<title>cluster_src/entities/cart</title>
<path fill="#ffffff" stroke="black" stroke-width="2" d="M310.38,-24C310.38,-24 747.25,-24 747.25,-24 753.25,-24 759.25,-30 759.25,-36 759.25,-36 759.25,-254 759.25,-254 759.25,-260 753.25,-266 747.25,-266 747.25,-266 310.38,-266 310.38,-266 304.38,-266 298.38,-260 298.38,-254 298.38,-254 298.38,-36 298.38,-36 298.38,-30 304.38,-24 310.38,-24"/>
<text text-anchor="middle" x="528.81" y="-253.45" font-family="Helvetica,sans-Serif" font-weight="bold" font-size="9.00">cart</text>
</g>
<g id="clust6" class="cluster">
<title>cluster_src/entities/cart/@x</title>
<path fill="#ffffff" stroke="black" stroke-width="2" d="M400.38,-188C400.38,-188 448.12,-188 448.12,-188 454.12,-188 460.12,-194 460.12,-200 460.12,-200 460.12,-228 460.12,-228 460.12,-234 454.12,-240 448.12,-240 448.12,-240 400.38,-240 400.38,-240 394.38,-240 388.38,-234 388.38,-228 388.38,-228 388.38,-200 388.38,-200 388.38,-194 394.38,-188 400.38,-188"/>
<text text-anchor="middle" x="424.25" y="-227.45" font-family="Helvetica,sans-Serif" font-weight="bold" font-size="9.00">@x</text>
</g>
<g id="clust7" class="cluster">
<title>cluster_src/entities/cart/model</title>
<path fill="#ffffff" stroke="black" stroke-width="2" d="M528.75,-38C528.75,-38 700.88,-38 700.88,-38 706.88,-38 712.88,-44 712.88,-50 712.88,-50 712.88,-78 712.88,-78 712.88,-84 706.88,-90 700.88,-90 700.88,-90 528.75,-90 528.75,-90 522.75,-90 516.75,-84 516.75,-78 516.75,-78 516.75,-50 516.75,-50 516.75,-44 522.75,-38 528.75,-38"/>
<text text-anchor="middle" x="614.81" y="-77.45" font-family="Helvetica,sans-Serif" font-weight="bold" font-size="9.00">model</text>
</g>
<g id="clust8" class="cluster">
<title>cluster_src/entities/cart/ui</title>
<path fill="#ffffff" stroke="black" stroke-width="2" d="M401.25,-98C401.25,-98 739.25,-98 739.25,-98 745.25,-98 751.25,-104 751.25,-110 751.25,-110 751.25,-168 751.25,-168 751.25,-174 745.25,-180 739.25,-180 739.25,-180 401.25,-180 401.25,-180 395.25,-180 389.25,-174 389.25,-168 389.25,-168 389.25,-110 389.25,-110 389.25,-104 395.25,-98 401.25,-98"/>
<text text-anchor="middle" x="570.25" y="-167.45" font-family="Helvetica,sans-Serif" font-weight="bold" font-size="9.00">ui</text>
</g>
<g id="clust9" class="cluster">
<title>cluster_src/entities/product</title>
<path fill="#ffffff" stroke="black" stroke-width="2" d="M528.75,-274C528.75,-274 1100,-274 1100,-274 1106,-274 1112,-280 1112,-286 1112,-286 1112,-512 1112,-512 1112,-518 1106,-524 1100,-524 1100,-524 528.75,-524 528.75,-524 522.75,-524 516.75,-518 516.75,-512 516.75,-512 516.75,-286 516.75,-286 516.75,-280 522.75,-274 528.75,-274"/>
<text text-anchor="middle" x="814.38" y="-511.45" font-family="Helvetica,sans-Serif" font-weight="bold" font-size="9.00">product</text>
</g>
<g id="clust10" class="cluster">
<title>cluster_src/entities/product/@x</title>
<path fill="#ffffff" stroke="black" stroke-width="2" d="M654.88,-282C654.88,-282 700.88,-282 700.88,-282 706.88,-282 712.88,-288 712.88,-294 712.88,-294 712.88,-322 712.88,-322 712.88,-328 706.88,-334 700.88,-334 700.88,-334 654.88,-334 654.88,-334 648.88,-334 642.88,-328 642.88,-322 642.88,-322 642.88,-294 642.88,-294 642.88,-288 648.88,-282 654.88,-282"/>
<text text-anchor="middle" x="677.88" y="-321.45" font-family="Helvetica,sans-Serif" font-weight="bold" font-size="9.00">@x</text>
</g>
<g id="clust11" class="cluster">
<title>cluster_src/entities/product/model</title>
<path fill="#ffffff" stroke="black" stroke-width="2" d="M799.5,-288C799.5,-288 1092,-288 1092,-288 1098,-288 1104,-294 1104,-300 1104,-300 1104,-342 1104,-342 1104,-348 1098,-354 1092,-354 1092,-354 799.5,-354 799.5,-354 793.5,-354 787.5,-348 787.5,-342 787.5,-342 787.5,-300 787.5,-300 787.5,-294 793.5,-288 799.5,-288"/>
<text text-anchor="middle" x="945.75" y="-341.45" font-family="Helvetica,sans-Serif" font-weight="bold" font-size="9.00">model</text>
</g>
<g id="clust12" class="cluster">
<title>cluster_src/entities/product/ui</title>
<path fill="#ffffff" stroke="black" stroke-width="2" d="M644.25,-362C644.25,-362 1022,-362 1022,-362 1028,-362 1034,-368 1034,-374 1034,-374 1034,-462 1034,-462 1034,-468 1028,-474 1022,-474 1022,-474 644.25,-474 644.25,-474 638.25,-474 632.25,-468 632.25,-462 632.25,-462 632.25,-374 632.25,-374 632.25,-368 638.25,-362 644.25,-362"/>
<text text-anchor="middle" x="833.12" y="-461.45" font-family="Helvetica,sans-Serif" font-weight="bold" font-size="9.00">ui</text>
</g>
<g id="clust13" class="cluster">
<title>cluster_src/pages</title>
<path fill="#ffffff" stroke="black" stroke-width="2" d="M209.88,-435C209.88,-435 270.38,-435 270.38,-435 276.38,-435 282.38,-441 282.38,-447 282.38,-447 282.38,-535 282.38,-535 282.38,-541 276.38,-547 270.38,-547 270.38,-547 209.88,-547 209.88,-547 203.88,-547 197.88,-541 197.88,-535 197.88,-535 197.88,-447 197.88,-447 197.88,-441 203.88,-435 209.88,-435"/>
<text text-anchor="middle" x="240.12" y="-534.45" font-family="Helvetica,sans-Serif" font-weight="bold" font-size="9.00">pages</text>
</g>
<g id="clust14" class="cluster">
<title>cluster_src/shared</title>
<path fill="#ffffff" stroke="black" stroke-width="2" d="M1140,-270C1140,-270 1456.5,-270 1456.5,-270 1462.5,-270 1468.5,-276 1468.5,-282 1468.5,-282 1468.5,-588 1468.5,-588 1468.5,-594 1462.5,-600 1456.5,-600 1456.5,-600 1140,-600 1140,-600 1134,-600 1128,-594 1128,-588 1128,-588 1128,-282 1128,-282 1128,-276 1134,-270 1140,-270"/>
<text text-anchor="middle" x="1298.25" y="-587.45" font-family="Helvetica,sans-Serif" font-weight="bold" font-size="9.00">shared</text>
</g>
<g id="clust15" class="cluster">
<title>cluster_src/shared/lib</title>
<path fill="#ffffff" stroke="black" stroke-width="2" d="M1148,-278C1148,-278 1201.75,-278 1201.75,-278 1207.75,-278 1213.75,-284 1213.75,-290 1213.75,-290 1213.75,-318 1213.75,-318 1213.75,-324 1207.75,-330 1201.75,-330 1201.75,-330 1148,-330 1148,-330 1142,-330 1136,-324 1136,-318 1136,-318 1136,-290 1136,-290 1136,-284 1142,-278 1148,-278"/>
<text text-anchor="middle" x="1174.88" y="-317.45" font-family="Helvetica,sans-Serif" font-weight="bold" font-size="9.00">lib</text>
</g>
<g id="clust16" class="cluster">
<title>cluster_src/shared/store</title>
<path fill="#ffffff" stroke="black" stroke-width="2" d="M1151.88,-338C1151.88,-338 1421.25,-338 1421.25,-338 1427.25,-338 1433.25,-344 1433.25,-350 1433.25,-350 1433.25,-468 1433.25,-468 1433.25,-474 1427.25,-480 1421.25,-480 1421.25,-480 1151.88,-480 1151.88,-480 1145.88,-480 1139.88,-474 1139.88,-468 1139.88,-468 1139.88,-350 1139.88,-350 1139.88,-344 1145.88,-338 1151.88,-338"/>
<text text-anchor="middle" x="1286.56" y="-467.45" font-family="Helvetica,sans-Serif" font-weight="bold" font-size="9.00">store</text>
</g>
<g id="clust17" class="cluster">
<title>cluster_src/shared/ui</title>
<path fill="#ffffff" stroke="black" stroke-width="2" d="M1151.88,-488C1151.88,-488 1448.5,-488 1448.5,-488 1454.5,-488 1460.5,-494 1460.5,-500 1460.5,-500 1460.5,-562 1460.5,-562 1460.5,-568 1454.5,-574 1448.5,-574 1448.5,-574 1151.88,-574 1151.88,-574 1145.88,-574 1139.88,-568 1139.88,-562 1139.88,-562 1139.88,-500 1139.88,-500 1139.88,-494 1145.88,-488 1151.88,-488"/>
<text text-anchor="middle" x="1300.19" y="-561.45" font-family="Helvetica,sans-Serif" font-weight="bold" font-size="9.00">ui</text>
</g>
<g id="clust18" class="cluster">
<title>cluster_src/shared/ui/layout</title>
<path fill="#ffffff" stroke="black" stroke-width="2" d="M1255.75,-496C1255.75,-496 1440.5,-496 1440.5,-496 1446.5,-496 1452.5,-502 1452.5,-508 1452.5,-508 1452.5,-536 1452.5,-536 1452.5,-542 1446.5,-548 1440.5,-548 1440.5,-548 1255.75,-548 1255.75,-548 1249.75,-548 1243.75,-542 1243.75,-536 1243.75,-536 1243.75,-508 1243.75,-508 1243.75,-502 1249.75,-496 1255.75,-496"/>
<text text-anchor="middle" x="1348.12" y="-535.45" font-family="Helvetica,sans-Serif" font-weight="bold" font-size="9.00">layout</text>
</g>
<g id="clust19" class="cluster">
<title>cluster_src/widgets</title>
<path fill="#ffffff" stroke="black" stroke-width="2" d="M209.12,-582C209.12,-582 484,-582 484,-582 490,-582 496,-588 496,-594 496,-594 496,-690 496,-690 496,-696 490,-702 484,-702 484,-702 209.12,-702 209.12,-702 203.13,-702 197.12,-696 197.12,-690 197.12,-690 197.12,-594 197.12,-594 197.12,-588 203.12,-582 209.12,-582"/>
<text text-anchor="middle" x="346.56" y="-689.45" font-family="Helvetica,sans-Serif" font-weight="bold" font-size="9.00">widgets</text>
</g>
<g id="clust20" class="cluster">
<title>cluster_src/widgets/header</title>
<path fill="#ffffff" stroke="black" stroke-width="2" d="M217.12,-590C217.12,-590 476,-590 476,-590 482,-590 488,-596 488,-602 488,-602 488,-664 488,-664 488,-670 482,-676 476,-676 476,-676 217.12,-676 217.12,-676 211.12,-676 205.12,-670 205.12,-664 205.12,-664 205.12,-602 205.12,-602 205.12,-596 211.12,-590 217.12,-590"/>
<text text-anchor="middle" x="346.56" y="-663.45" font-family="Helvetica,sans-Serif" font-weight="bold" font-size="9.00">header</text>
</g>
<g id="clust21" class="cluster">
<title>cluster_src/widgets/header/ui</title>
<path fill="#ffffff" stroke="black" stroke-width="2" d="M307.25,-598C307.25,-598 468,-598 468,-598 474,-598 480,-604 480,-610 480,-610 480,-638 480,-638 480,-644 474,-650 468,-650 468,-650 307.25,-650 307.25,-650 301.25,-650 295.25,-644 295.25,-638 295.25,-638 295.25,-610 295.25,-610 295.25,-604 301.25,-598 307.25,-598"/>
<text text-anchor="middle" x="387.62" y="-637.45" font-family="Helvetica,sans-Serif" font-weight="bold" font-size="9.00">ui</text>
</g>
<!-- src/app/app&#45;router.tsx -->
<g id="node1" class="node">
<title>src/app/app&#45;router.tsx</title>
<g id="a_node1"><a xlink:href="src/app/app-router.tsx" xlink:title="app&#45;router.tsx">
<path fill="#bbfeff" stroke="black" d="M166.46,-519.88C166.46,-519.88 106.04,-519.88 106.04,-519.88 103.08,-519.88 100.12,-516.92 100.12,-513.96 100.12,-513.96 100.12,-508.04 100.12,-508.04 100.12,-505.08 103.08,-502.12 106.04,-502.12 106.04,-502.12 166.46,-502.12 166.46,-502.12 169.42,-502.12 172.38,-505.08 172.38,-508.04 172.38,-508.04 172.38,-513.96 172.38,-513.96 172.38,-516.92 169.42,-519.88 166.46,-519.88"/>
<text text-anchor="start" x="108.12" y="-507.32" font-family="Helvetica,sans-Serif" font-size="9.00">app&#45;router.tsx</text>
</a>
</g>
</g>
<!-- src/pages/about.tsx -->
<g id="node2" class="node">
<title>src/pages/about.tsx</title>
<g id="a_node2"><a xlink:href="src/pages/about.tsx" xlink:title="about.tsx">
<path fill="#bbfeff" stroke="black" d="M261.21,-460.88C261.21,-460.88 219.04,-460.88 219.04,-460.88 216.08,-460.88 213.12,-457.92 213.12,-454.96 213.12,-454.96 213.12,-449.04 213.12,-449.04 213.12,-446.08 216.08,-443.12 219.04,-443.12 219.04,-443.12 261.21,-443.12 261.21,-443.12 264.17,-443.12 267.12,-446.08 267.12,-449.04 267.12,-449.04 267.12,-454.96 267.12,-454.96 267.12,-457.92 264.17,-460.88 261.21,-460.88"/>
<text text-anchor="start" x="221.75" y="-448.32" font-family="Helvetica,sans-Serif" font-size="9.00">about.tsx</text>
</a>
</g>
</g>
<!-- src/app/app&#45;router.tsx&#45;&gt;src/pages/about.tsx -->
<g id="edge1" class="edge">
<title>src/app/app&#45;router.tsx&#45;&gt;src/pages/about.tsx</title>
<path fill="none" stroke="#000000" stroke-width="2" stroke-opacity="0.200000" d="M172.84,-505.95C178.88,-503.72 184.65,-500.54 189.12,-496 198.52,-486.49 188.03,-476.8 197.12,-467 199.36,-464.59 202.02,-462.56 204.89,-460.87"/>
<polygon fill="#000000" fill-opacity="0.200000" stroke="#000000" stroke-width="2" stroke-opacity="0.200000" points="205.59,-462.86 210.11,-458.38 203.79,-459.06 205.59,-462.86"/>
</g>
<!-- src/pages/home.tsx -->
<g id="node3" class="node">
<title>src/pages/home.tsx</title>
<g id="a_node3"><a xlink:href="src/pages/home.tsx" xlink:title="home.tsx">
<path fill="#bbfeff" stroke="black" d="M261.21,-490.88C261.21,-490.88 219.04,-490.88 219.04,-490.88 216.08,-490.88 213.12,-487.92 213.12,-484.96 213.12,-484.96 213.12,-479.04 213.12,-479.04 213.12,-476.08 216.08,-473.12 219.04,-473.12 219.04,-473.12 261.21,-473.12 261.21,-473.12 264.17,-473.12 267.12,-476.08 267.12,-479.04 267.12,-479.04 267.12,-484.96 267.12,-484.96 267.12,-487.92 264.17,-490.88 261.21,-490.88"/>
<text text-anchor="start" x="221.75" y="-478.32" font-family="Helvetica,sans-Serif" font-size="9.00">home.tsx</text>
</a>
</g>
</g>
<!-- src/app/app&#45;router.tsx&#45;&gt;src/pages/home.tsx -->
<g id="edge2" class="edge">
<title>src/app/app&#45;router.tsx&#45;&gt;src/pages/home.tsx</title>
<path fill="none" stroke="#000000" stroke-width="2" stroke-opacity="0.200000" d="M170.04,-501.66C180.97,-498.56 193.17,-495.08 204.25,-491.93"/>
<polygon fill="#000000" fill-opacity="0.200000" stroke="#000000" stroke-width="2" stroke-opacity="0.200000" points="204.73,-493.97 209.93,-490.31 203.58,-489.93 204.73,-493.97"/>
</g>
<!-- src/pages/not&#45;found.tsx -->
<g id="node4" class="node">
<title>src/pages/not&#45;found.tsx</title>
<g id="a_node4"><a xlink:href="src/pages/not-found.tsx" xlink:title="not&#45;found.tsx">
<path fill="#bbfeff" stroke="black" d="M268.46,-520.88C268.46,-520.88 211.79,-520.88 211.79,-520.88 208.83,-520.88 205.88,-517.92 205.88,-514.96 205.88,-514.96 205.88,-509.04 205.88,-509.04 205.88,-506.08 208.83,-503.12 211.79,-503.12 211.79,-503.12 268.46,-503.12 268.46,-503.12 271.42,-503.12 274.38,-506.08 274.38,-509.04 274.38,-509.04 274.38,-514.96 274.38,-514.96 274.38,-517.92 271.42,-520.88 268.46,-520.88"/>
<text text-anchor="start" x="213.88" y="-508.32" font-family="Helvetica,sans-Serif" font-size="9.00">not&#45;found.tsx</text>
</a>
</g>
</g>
<!-- src/app/app&#45;router.tsx&#45;&gt;src/pages/not&#45;found.tsx -->
<g id="edge3" class="edge">
<title>src/app/app&#45;router.tsx&#45;&gt;src/pages/not&#45;found.tsx</title>
<path fill="none" stroke="#000000" stroke-width="2" stroke-opacity="0.200000" d="M172.6,-511.35C180.36,-511.42 188.66,-511.5 196.68,-511.58"/>
<polygon fill="#000000" fill-opacity="0.200000" stroke="#000000" stroke-width="2" stroke-opacity="0.200000" points="196.51,-513.68 202.53,-511.64 196.55,-509.48 196.51,-513.68"/>
</g>
<!-- src/entities/cart/index.ts -->
<g id="node14" class="node">
<title>src/entities/cart/index.ts</title>
<g id="a_node14"><a xlink:href="src/entities/cart/index.ts" xlink:title="index.ts">
<path fill="#ddfeff" stroke="black" d="M354.46,-101.88C354.46,-101.88 312.29,-101.88 312.29,-101.88 309.33,-101.88 306.38,-98.92 306.38,-95.96 306.38,-95.96 306.38,-90.04 306.38,-90.04 306.38,-87.08 309.33,-84.12 312.29,-84.12 312.29,-84.12 354.46,-84.12 354.46,-84.12 357.42,-84.12 360.38,-87.08 360.38,-90.04 360.38,-90.04 360.38,-95.96 360.38,-95.96 360.38,-98.92 357.42,-101.88 354.46,-101.88"/>
<text text-anchor="start" x="317.62" y="-89.33" font-family="Helvetica,sans-Serif" font-size="9.00">index.ts</text>
</a>
</g>
</g>
<!-- src/pages/home.tsx&#45;&gt;src/entities/cart/index.ts -->
<g id="edge49" class="edge">
<title>src/pages/home.tsx&#45;&gt;src/entities/cart/index.ts</title>
<path fill="none" stroke="#000000" stroke-width="2" stroke-opacity="0.200000" d="M267.39,-477.21C273.09,-475 278.55,-471.75 282.38,-467 327.19,-411.29 331.93,-178.65 332.36,-111.32"/>
<polygon fill="#000000" fill-opacity="0.200000" stroke="#000000" stroke-width="2" stroke-opacity="0.200000" points="334.46,-111.35 332.38,-105.34 330.26,-111.33 334.46,-111.35"/>
</g>
<!-- src/entities/product/index.ts -->
<g id="node24" class="node">
<title>src/entities/product/index.ts</title>
<g id="a_node24"><a xlink:href="src/entities/product/index.ts" xlink:title="index.ts">
<path fill="#ddfeff" stroke="black" d="M572.83,-490.88C572.83,-490.88 530.67,-490.88 530.67,-490.88 527.71,-490.88 524.75,-487.92 524.75,-484.96 524.75,-484.96 524.75,-479.04 524.75,-479.04 524.75,-476.08 527.71,-473.12 530.67,-473.12 530.67,-473.12 572.83,-473.12 572.83,-473.12 575.79,-473.12 578.75,-476.08 578.75,-479.04 578.75,-479.04 578.75,-484.96 578.75,-484.96 578.75,-487.92 575.79,-490.88 572.83,-490.88"/>
<text text-anchor="start" x="536" y="-478.32" font-family="Helvetica,sans-Serif" font-size="9.00">index.ts</text>
</a>
</g>
</g>
<!-- src/pages/home.tsx&#45;&gt;src/entities/product/index.ts -->
<g id="edge50" class="edge">
<title>src/pages/home.tsx&#45;&gt;src/entities/product/index.ts</title>
<path fill="none" stroke="#000000" stroke-width="2" stroke-opacity="0.200000" d="M267.52,-482C323.28,-482 453.04,-482 515.68,-482"/>
<polygon fill="#000000" fill-opacity="0.200000" stroke="#000000" stroke-width="2" stroke-opacity="0.200000" points="515.39,-484.1 521.39,-482 515.39,-479.9 515.39,-484.1"/>
</g>
<!-- src/app/app&#45;store.ts -->
<g id="node5" class="node">
<title>src/app/app&#45;store.ts</title>
<g id="a_node5"><a xlink:href="src/app/app-store.ts" xlink:title="app&#45;store.ts">
<path fill="#ddfeff" stroke="black" d="M162.33,-549.88C162.33,-549.88 110.17,-549.88 110.17,-549.88 107.21,-549.88 104.25,-546.92 104.25,-543.96 104.25,-543.96 104.25,-538.04 104.25,-538.04 104.25,-535.08 107.21,-532.12 110.17,-532.12 110.17,-532.12 162.33,-532.12 162.33,-532.12 165.29,-532.12 168.25,-535.08 168.25,-538.04 168.25,-538.04 168.25,-543.96 168.25,-543.96 168.25,-546.92 165.29,-549.88 162.33,-549.88"/>
<text text-anchor="start" x="112.25" y="-537.33" font-family="Helvetica,sans-Serif" font-size="9.00">app&#45;store.ts</text>
</a>
</g>
</g>
<!-- src/shared/store/index.ts -->
<g id="node6" class="node">
<title>src/shared/store/index.ts</title>
<g id="a_node6"><a xlink:href="src/shared/store/index.ts" xlink:title="index.ts">
<path fill="#ddfeff" stroke="black" d="M1195.96,-378.88C1195.96,-378.88 1153.79,-378.88 1153.79,-378.88 1150.83,-378.88 1147.88,-375.92 1147.88,-372.96 1147.88,-372.96 1147.88,-367.04 1147.88,-367.04 1147.88,-364.08 1150.83,-361.12 1153.79,-361.12 1153.79,-361.12 1195.96,-361.12 1195.96,-361.12 1198.92,-361.12 1201.88,-364.08 1201.88,-367.04 1201.88,-367.04 1201.88,-372.96 1201.88,-372.96 1201.88,-375.92 1198.92,-378.88 1195.96,-378.88"/>
<text text-anchor="start" x="1159.12" y="-366.32" font-family="Helvetica,sans-Serif" font-size="9.00">index.ts</text>
</a>
</g>
</g>
<!-- src/app/app&#45;store.ts&#45;&gt;src/shared/store/index.ts -->
<g id="edge4" class="edge">
<title>src/app/app&#45;store.ts&#45;&gt;src/shared/store/index.ts</title>
<path fill="none" stroke="#000000" stroke-width="2" stroke-opacity="0.200000" d="M168.57,-546.21C177.75,-547.6 187.82,-548.99 197.12,-550 257.02,-556.48 272.13,-559 332.38,-559 332.38,-559 332.38,-559 959.38,-559 1062.87,-559 1140.08,-433.6 1165.16,-387.09"/>
<polygon fill="#000000" fill-opacity="0.200000" stroke="#000000" stroke-width="2" stroke-opacity="0.200000" points="1166.87,-388.34 1167.82,-382.05 1163.16,-386.38 1166.87,-388.34"/>
</g>
<!-- src/shared/store/createAppAsyncThunk.ts -->
<g id="node32" class="node">
<title>src/shared/store/createAppAsyncThunk.ts</title>
<g id="a_node32"><a xlink:href="src/shared/store/createAppAsyncThunk.ts" xlink:title="createAppAsyncThunk.ts">
<path fill="#ddfeff" stroke="black" d="M1333.08,-423.88C1333.08,-423.88 1227.67,-423.88 1227.67,-423.88 1224.71,-423.88 1221.75,-420.92 1221.75,-417.96 1221.75,-417.96 1221.75,-412.04 1221.75,-412.04 1221.75,-409.08 1224.71,-406.12 1227.67,-406.12 1227.67,-406.12 1333.08,-406.12 1333.08,-406.12 1336.04,-406.12 1339,-409.08 1339,-412.04 1339,-412.04 1339,-417.96 1339,-417.96 1339,-420.92 1336.04,-423.88 1333.08,-423.88"/>
<text text-anchor="start" x="1229.75" y="-411.32" font-family="Helvetica,sans-Serif" font-size="9.00">createAppAsyncThunk.ts</text>
</a>
</g>
</g>
<!-- src/shared/store/index.ts&#45;&gt;src/shared/store/createAppAsyncThunk.ts -->
<g id="edge52" class="edge">
<title>src/shared/store/index.ts&#45;&gt;src/shared/store/createAppAsyncThunk.ts</title>
<path fill="none" stroke="#000000" stroke-width="2" stroke-opacity="0.200000" d="M1187.71,-379.29C1196.63,-385.9 1209.39,-394.53 1221.75,-400 1224.61,-401.27 1227.6,-402.45 1230.65,-403.54"/>
<polygon fill="#000000" fill-opacity="0.200000" stroke="#000000" stroke-width="2" stroke-opacity="0.200000" points="1235.36,-407.33 1230.34,-403.43 1236.69,-403.35 1235.36,-407.33"/>
</g>
<!-- src/shared/store/rootReducer.ts -->
<g id="node34" class="node">
<title>src/shared/store/rootReducer.ts</title>
<g id="a_node34"><a xlink:href="src/shared/store/rootReducer.ts" xlink:title="rootReducer.ts">
<path fill="#ddfeff" stroke="black" d="M1312.46,-453.88C1312.46,-453.88 1248.29,-453.88 1248.29,-453.88 1245.33,-453.88 1242.38,-450.92 1242.38,-447.96 1242.38,-447.96 1242.38,-442.04 1242.38,-442.04 1242.38,-439.08 1245.33,-436.12 1248.29,-436.12 1248.29,-436.12 1312.46,-436.12 1312.46,-436.12 1315.42,-436.12 1318.38,-439.08 1318.38,-442.04 1318.38,-442.04 1318.38,-447.96 1318.38,-447.96 1318.38,-450.92 1315.42,-453.88 1312.46,-453.88"/>
<text text-anchor="start" x="1250.38" y="-441.32" font-family="Helvetica,sans-Serif" font-size="9.00">rootReducer.ts</text>
</a>
</g>
</g>
<!-- src/shared/store/index.ts&#45;&gt;src/shared/store/rootReducer.ts -->
<g id="edge53" class="edge">
<title>src/shared/store/index.ts&#45;&gt;src/shared/store/rootReducer.ts</title>
<path fill="none" stroke="#000000" stroke-width="2" stroke-opacity="0.200000" d="M1180.41,-379.27C1187.4,-392.58 1202.09,-416.94 1221.75,-430 1225.95,-432.79 1230.65,-435.06 1235.5,-436.91"/>
<polygon fill="#000000" fill-opacity="0.200000" stroke="#000000" stroke-width="2" stroke-opacity="0.200000" points="1240.54,-440.85 1235.54,-436.93 1241.9,-436.87 1240.54,-440.85"/>
</g>
<!-- src/shared/store/useAppDispatch.ts -->
<g id="node35" class="node">
<title>src/shared/store/useAppDispatch.ts</title>
<g id="a_node35"><a xlink:href="src/shared/store/useAppDispatch.ts" xlink:title="useAppDispatch.ts">
<path fill="#ddfeff" stroke="black" d="M1320.71,-363.88C1320.71,-363.88 1240.04,-363.88 1240.04,-363.88 1237.08,-363.88 1234.12,-360.92 1234.12,-357.96 1234.12,-357.96 1234.12,-352.04 1234.12,-352.04 1234.12,-349.08 1237.08,-346.12 1240.04,-346.12 1240.04,-346.12 1320.71,-346.12 1320.71,-346.12 1323.67,-346.12 1326.62,-349.08 1326.62,-352.04 1326.62,-352.04 1326.62,-357.96 1326.62,-357.96 1326.62,-360.92 1323.67,-363.88 1320.71,-363.88"/>
<text text-anchor="start" x="1242.12" y="-351.32" font-family="Helvetica,sans-Serif" font-size="9.00">useAppDispatch.ts</text>
</a>
</g>
</g>
<!-- src/shared/store/index.ts&#45;&gt;src/shared/store/useAppDispatch.ts -->
<g id="edge54" class="edge">
<title>src/shared/store/index.ts&#45;&gt;src/shared/store/useAppDispatch.ts</title>
<path fill="none" stroke="#000000" stroke-width="2" stroke-opacity="0.200000" d="M1202.26,-366.18C1209.82,-365.08 1218.34,-363.85 1226.89,-362.61"/>
<polygon fill="#000000" fill-opacity="0.200000" stroke="#000000" stroke-width="2" stroke-opacity="0.200000" points="1233.05,-363.84 1226.81,-362.62 1232.44,-359.68 1233.05,-363.84"/>
</g>
<!-- src/shared/store/useAppSelector.ts -->
<g id="node36" class="node">
<title>src/shared/store/useAppSelector.ts</title>
<g id="a_node36"><a xlink:href="src/shared/store/useAppSelector.ts" xlink:title="useAppSelector.ts">
<path fill="#ddfeff" stroke="black" d="M1319.58,-393.88C1319.58,-393.88 1241.17,-393.88 1241.17,-393.88 1238.21,-393.88 1235.25,-390.92 1235.25,-387.96 1235.25,-387.96 1235.25,-382.04 1235.25,-382.04 1235.25,-379.08 1238.21,-376.12 1241.17,-376.12 1241.17,-376.12 1319.58,-376.12 1319.58,-376.12 1322.54,-376.12 1325.5,-379.08 1325.5,-382.04 1325.5,-382.04 1325.5,-387.96 1325.5,-387.96 1325.5,-390.92 1322.54,-393.88 1319.58,-393.88"/>
<text text-anchor="start" x="1243.25" y="-381.32" font-family="Helvetica,sans-Serif" font-size="9.00">useAppSelector.ts</text>
</a>
</g>
</g>
<!-- src/shared/store/index.ts&#45;&gt;src/shared/store/useAppSelector.ts -->
<g id="edge55" class="edge">
<title>src/shared/store/index.ts&#45;&gt;src/shared/store/useAppSelector.ts</title>
<path fill="none" stroke="#000000" stroke-width="2" stroke-opacity="0.200000" d="M1202.26,-373.82C1210.11,-374.96 1218.98,-376.25 1227.85,-377.53"/>
<polygon fill="#000000" fill-opacity="0.200000" stroke="#000000" stroke-width="2" stroke-opacity="0.200000" points="1233.65,-380.5 1228.02,-377.56 1234.25,-376.34 1233.65,-380.5"/>
</g>
<!-- src/app/entry.css -->
<g id="node7" class="node">
<title>src/app/entry.css</title>
<g id="a_node7"><a xlink:href="src/app/entry.css" xlink:title="entry.css">
<path fill="#ffffcc" stroke="black" d="M157.33,-489.88C157.33,-489.88 115.17,-489.88 115.17,-489.88 112.21,-489.88 109.25,-486.92 109.25,-483.96 109.25,-483.96 109.25,-478.04 109.25,-478.04 109.25,-475.08 112.21,-472.12 115.17,-472.12 115.17,-472.12 157.33,-472.12 157.33,-472.12 160.29,-472.12 163.25,-475.08 163.25,-478.04 163.25,-478.04 163.25,-483.96 163.25,-483.96 163.25,-486.92 160.29,-489.88 157.33,-489.88"/>
<text text-anchor="start" x="118.25" y="-477.32" font-family="Helvetica,sans-Serif" font-size="9.00">entry.css</text>
</a>
</g>
</g>
<!-- src/app/entry.tsx -->
<g id="node8" class="node">
<title>src/app/entry.tsx</title>
<g id="a_node8"><a xlink:href="src/app/entry.tsx" xlink:title="entry.tsx">
<path fill="#bbfeff" stroke="black" d="M72.08,-534.88C72.08,-534.88 29.92,-534.88 29.92,-534.88 26.96,-534.88 24,-531.92 24,-528.96 24,-528.96 24,-523.04 24,-523.04 24,-520.08 26.96,-517.12 29.92,-517.12 29.92,-517.12 72.08,-517.12 72.08,-517.12 75.04,-517.12 78,-520.08 78,-523.04 78,-523.04 78,-528.96 78,-528.96 78,-531.92 75.04,-534.88 72.08,-534.88"/>
<text text-anchor="start" x="34.12" y="-522.33" font-family="Helvetica,sans-Serif" font-size="9.00">entry.tsx</text>
</a>
</g>
</g>
<!-- src/app/entry.tsx&#45;&gt;src/app/app&#45;router.tsx -->
<g id="edge5" class="edge">
<title>src/app/entry.tsx&#45;&gt;src/app/app&#45;router.tsx</title>
<path fill="none" stroke="#000000" stroke-width="2" stroke-opacity="0.200000" d="M78.34,-521.25C82.36,-520.53 86.59,-519.77 90.87,-519"/>
<polygon fill="#000000" fill-opacity="0.200000" stroke="#000000" stroke-width="2" stroke-opacity="0.200000" points="91.13,-521.08 96.66,-517.95 90.39,-516.95 91.13,-521.08"/>
</g>
<!-- src/app/entry.tsx&#45;&gt;src/app/app&#45;store.ts -->
<g id="edge6" class="edge">
<title>src/app/entry.tsx&#45;&gt;src/app/app&#45;store.ts</title>
<path fill="none" stroke="#000000" stroke-width="2" stroke-opacity="0.200000" d="M78.34,-530.75C83.66,-531.7 89.36,-532.73 95.02,-533.75"/>
<polygon fill="#000000" fill-opacity="0.200000" stroke="#000000" stroke-width="2" stroke-opacity="0.200000" points="94.58,-535.81 100.86,-534.8 95.32,-531.67 94.58,-535.81"/>
</g>
<!-- src/app/entry.tsx&#45;&gt;src/app/entry.css -->
<g id="edge7" class="edge">
<title>src/app/entry.tsx&#45;&gt;src/app/entry.css</title>
<path fill="none" stroke="#000000" stroke-width="2" stroke-opacity="0.200000" d="M62.07,-516.87C69.67,-510.35 80.61,-501.75 91.38,-496 94.4,-494.38 97.64,-492.89 100.94,-491.52"/>
<polygon fill="#000000" fill-opacity="0.200000" stroke="#000000" stroke-width="2" stroke-opacity="0.200000" points="101.46,-493.57 106.32,-489.46 99.96,-489.64 101.46,-493.57"/>
</g>
<!-- src/app/layouts/AppLayout.tsx -->
<g id="node9" class="node">
<title>src/app/layouts/AppLayout.tsx</title>
<g id="a_node9"><a xlink:href="src/app/layouts/AppLayout.tsx" xlink:title="AppLayout.tsx">
<path fill="#bbfeff" stroke="black" d="M167.21,-583.88C167.21,-583.88 105.29,-583.88 105.29,-583.88 102.33,-583.88 99.38,-580.92 99.38,-577.96 99.38,-577.96 99.38,-572.04 99.38,-572.04 99.38,-569.08 102.33,-566.12 105.29,-566.12 105.29,-566.12 167.21,-566.12 167.21,-566.12 170.17,-566.12 173.12,-569.08 173.12,-572.04 173.12,-572.04 173.12,-577.96 173.12,-577.96 173.12,-580.92 170.17,-583.88 167.21,-583.88"/>
<text text-anchor="start" x="107.38" y="-571.33" font-family="Helvetica,sans-Serif" font-size="9.00">AppLayout.tsx</text>
</a>
</g>
</g>
<!-- src/app/entry.tsx&#45;&gt;src/app/layouts/AppLayout.tsx -->
<g id="edge8" class="edge">
<title>src/app/entry.tsx&#45;&gt;src/app/layouts/AppLayout.tsx</title>
<path fill="none" stroke="#000000" stroke-width="2" stroke-opacity="0.200000" d="M78.46,-534.88C80.25,-536.09 81.92,-537.46 83.38,-539 90.8,-546.87 83.55,-554.53 91.38,-562 91.52,-562.14 91.66,-562.27 91.81,-562.41"/>
<polygon fill="#000000" fill-opacity="0.200000" stroke="#000000" stroke-width="2" stroke-opacity="0.200000" points="90.56,-564.09 96.68,-565.81 92.96,-560.65 90.56,-564.09"/>
</g>
<!-- src/shared/ui/index.ts -->
<g id="node10" class="node">
<title>src/shared/ui/index.ts</title>
<g id="a_node10"><a xlink:href="src/shared/ui/index.ts" xlink:title="index.ts">
<path fill="#ddfeff" stroke="black" d="M1195.96,-534.88C1195.96,-534.88 1153.79,-534.88 1153.79,-534.88 1150.83,-534.88 1147.88,-531.92 1147.88,-528.96 1147.88,-528.96 1147.88,-523.04 1147.88,-523.04 1147.88,-520.08 1150.83,-517.12 1153.79,-517.12 1153.79,-517.12 1195.96,-517.12 1195.96,-517.12 1198.92,-517.12 1201.88,-520.08 1201.88,-523.04 1201.88,-523.04 1201.88,-528.96 1201.88,-528.96 1201.88,-531.92 1198.92,-534.88 1195.96,-534.88"/>
<text text-anchor="start" x="1159.12" y="-522.33" font-family="Helvetica,sans-Serif" font-size="9.00">index.ts</text>
</a>
</g>
</g>
<!-- src/app/layouts/AppLayout.tsx&#45;&gt;src/shared/ui/index.ts -->
<g id="edge9" class="edge">
<title>src/app/layouts/AppLayout.tsx&#45;&gt;src/shared/ui/index.ts</title>
<path fill="none" stroke="#000000" stroke-width="2" stroke-opacity="0.200000" d="M173.57,-574.41C212.76,-573.82 276.99,-573 332.38,-573 332.38,-573 332.38,-573 959.38,-573 1030.9,-573 1052.38,-586.31 1120,-563 1133.81,-558.24 1147.36,-548.91 1157.41,-540.81"/>
<polygon fill="#000000" fill-opacity="0.200000" stroke="#000000" stroke-width="2" stroke-opacity="0.200000" points="1158.51,-542.63 1161.75,-537.16 1155.81,-539.41 1158.51,-542.63"/>
</g>
<!-- src/widgets/header/index.ts -->
<g id="node11" class="node">
<title>src/widgets/header/index.ts</title>
<g id="a_node11"><a xlink:href="src/widgets/header/index.ts" xlink:title="index.ts">
<path fill="#ddfeff" stroke="black" d="M261.21,-619.88C261.21,-619.88 219.04,-619.88 219.04,-619.88 216.08,-619.88 213.12,-616.92 213.12,-613.96 213.12,-613.96 213.12,-608.04 213.12,-608.04 213.12,-605.08 216.08,-602.12 219.04,-602.12 219.04,-602.12 261.21,-602.12 261.21,-602.12 264.17,-602.12 267.12,-605.08 267.12,-608.04 267.12,-608.04 267.12,-613.96 267.12,-613.96 267.12,-616.92 264.17,-619.88 261.21,-619.88"/>
<text text-anchor="start" x="224.38" y="-607.33" font-family="Helvetica,sans-Serif" font-size="9.00">index.ts</text>
</a>
</g>
</g>
<!-- src/app/layouts/AppLayout.tsx&#45;&gt;src/widgets/header/index.ts -->
<g id="edge10" class="edge">
<title>src/app/layouts/AppLayout.tsx&#45;&gt;src/widgets/header/index.ts</title>
<path fill="none" stroke="#000000" stroke-width="2" stroke-opacity="0.200000" d="M163.75,-584.36C176.13,-588.74 191.04,-594.01 204.31,-598.7"/>
<polygon fill="#000000" fill-opacity="0.200000" stroke="#000000" stroke-width="2" stroke-opacity="0.200000" points="203.55,-600.65 209.9,-600.67 204.95,-596.69 203.55,-600.65"/>
</g>
<!-- src/shared/ui/layout/Layout.tsx -->
<g id="node37" class="node">
<title>src/shared/ui/layout/Layout.tsx</title>
<g id="a_node37"><a xlink:href="src/shared/ui/layout/Layout.tsx" xlink:title="Layout.tsx">
<path fill="#bbfeff" stroke="black" d="M1303.08,-521.88C1303.08,-521.88 1257.67,-521.88 1257.67,-521.88 1254.71,-521.88 1251.75,-518.92 1251.75,-515.96 1251.75,-515.96 1251.75,-510.04 1251.75,-510.04 1251.75,-507.08 1254.71,-504.12 1257.67,-504.12 1257.67,-504.12 1303.08,-504.12 1303.08,-504.12 1306.04,-504.12 1309,-507.08 1309,-510.04 1309,-510.04 1309,-515.96 1309,-515.96 1309,-518.92 1306.04,-521.88 1303.08,-521.88"/>
<text text-anchor="start" x="1259.75" y="-509.32" font-family="Helvetica,sans-Serif" font-size="9.00">Layout.tsx</text>
</a>
</g>
</g>
<!-- src/shared/ui/index.ts&#45;&gt;src/shared/ui/layout/Layout.tsx -->
<g id="edge58" class="edge">
<title>src/shared/ui/index.ts&#45;&gt;src/shared/ui/layout/Layout.tsx</title>
<path fill="none" stroke="#000000" stroke-width="2" stroke-opacity="0.200000" d="M1202.26,-522.69C1215.11,-521.07 1230.74,-519.11 1244.55,-517.37"/>
<polygon fill="#000000" fill-opacity="0.200000" stroke="#000000" stroke-width="2" stroke-opacity="0.200000" points="1250.86,-518.7 1244.64,-517.36 1250.34,-514.53 1250.86,-518.7"/>
</g>
<!-- src/widgets/header/ui/Header.tsx -->
<g id="node40" class="node">
<title>src/widgets/header/ui/Header.tsx</title>
<g id="a_node40"><a xlink:href="src/widgets/header/ui/Header.tsx" xlink:title="Header.tsx">
<path fill="#bbfeff" stroke="black" d="M357.58,-623.88C357.58,-623.88 309.17,-623.88 309.17,-623.88 306.21,-623.88 303.25,-620.92 303.25,-617.96 303.25,-617.96 303.25,-612.04 303.25,-612.04 303.25,-609.08 306.21,-606.12 309.17,-606.12 309.17,-606.12 357.58,-606.12 357.58,-606.12 360.54,-606.12 363.5,-609.08 363.5,-612.04 363.5,-612.04 363.5,-617.96 363.5,-617.96 363.5,-620.92 360.54,-623.88 357.58,-623.88"/>
<text text-anchor="start" x="311.25" y="-611.33" font-family="Helvetica,sans-Serif" font-size="9.00">Header.tsx</text>
</a>
</g>
</g>
<!-- src/widgets/header/index.ts&#45;&gt;src/widgets/header/ui/Header.tsx -->
<g id="edge60" class="edge">
<title>src/widgets/header/index.ts&#45;&gt;src/widgets/header/ui/Header.tsx</title>
<path fill="none" stroke="#000000" stroke-width="2" stroke-opacity="0.200000" d="M267.52,-612.16C276.33,-612.54 286.31,-612.98 295.75,-613.39"/>
<polygon fill="#000000" fill-opacity="0.200000" stroke="#000000" stroke-width="2" stroke-opacity="0.200000" points="301.75,-615.76 295.84,-613.4 301.93,-611.56 301.75,-615.76"/>
</g>
<!-- src/entities/cart/@x/product.ts -->
<g id="node12" class="node">
<title>src/entities/cart/@x/product.ts</title>
<g id="a_node12"><a xlink:href="src/entities/cart/@x/product.ts" xlink:title="product.ts">
<path fill="#ddfeff" stroke="black" d="M446.21,-213.88C446.21,-213.88 402.29,-213.88 402.29,-213.88 399.33,-213.88 396.38,-210.92 396.38,-207.96 396.38,-207.96 396.38,-202.04 396.38,-202.04 396.38,-199.08 399.33,-196.12 402.29,-196.12 402.29,-196.12 446.21,-196.12 446.21,-196.12 449.17,-196.12 452.12,-199.08 452.12,-202.04 452.12,-202.04 452.12,-207.96 452.12,-207.96 452.12,-210.92 449.17,-213.88 446.21,-213.88"/>
<text text-anchor="start" x="404.38" y="-201.32" font-family="Helvetica,sans-Serif" font-size="9.00">product.ts</text>
</a>
</g>
</g>
<!-- src/entities/cart/model/store.ts -->
<g id="node13" class="node">
<title>src/entities/cart/model/store.ts</title>
<g id="a_node13"><a xlink:href="src/entities/cart/model/store.ts" xlink:title="store.ts">
<path fill="#ddfeff" stroke="black" d="M572.83,-63.88C572.83,-63.88 530.67,-63.88 530.67,-63.88 527.71,-63.88 524.75,-60.92 524.75,-57.96 524.75,-57.96 524.75,-52.04 524.75,-52.04 524.75,-49.08 527.71,-46.12 530.67,-46.12 530.67,-46.12 572.83,-46.12 572.83,-46.12 575.79,-46.12 578.75,-49.08 578.75,-52.04 578.75,-52.04 578.75,-57.96 578.75,-57.96 578.75,-60.92 575.79,-63.88 572.83,-63.88"/>
<text text-anchor="start" x="537.12" y="-51.33" font-family="Helvetica,sans-Serif" font-size="9.00">store.ts</text>
</a>
</g>
</g>
<!-- src/entities/cart/@x/product.ts&#45;&gt;src/entities/cart/model/store.ts -->
<g id="edge11" class="edge">
<title>src/entities/cart/@x/product.ts&#45;&gt;src/entities/cart/model/store.ts</title>
<path fill="none" stroke="#000000" stroke-width="2" stroke-opacity="0.200000" d="M452.51,-203.66C467.68,-201.39 485.57,-195.9 496,-183 508.35,-167.73 494.99,-112.45 504,-95 509.29,-84.77 518.41,-76.06 527.2,-69.41"/>
<polygon fill="#000000" fill-opacity="0.200000" stroke="#000000" stroke-width="2" stroke-opacity="0.200000" points="528.26,-71.23 531.95,-66.06 525.84,-67.8 528.26,-71.23"/>
</g>
<!-- src/entities/cart/model/store.ts&#45;&gt;src/shared/store/index.ts -->
<g id="edge17" class="edge">
<title>src/entities/cart/model/store.ts&#45;&gt;src/shared/store/index.ts</title>
<path fill="none" stroke="#000000" stroke-width="2" stroke-opacity="0.200000" d="M578.98,-47.13C589.33,-44.37 601.38,-41.56 612.5,-40 704.54,-27.06 728.56,-33 821.5,-33 821.5,-33 821.5,-33 959.38,-33 1084.06,-33 1075.88,-146.39 1120,-263 1131.08,-292.29 1112.91,-305.56 1128,-333 1132.98,-342.06 1141.18,-349.73 1149.28,-355.7"/>
<polygon fill="#000000" fill-opacity="0.200000" stroke="#000000" stroke-width="2" stroke-opacity="0.200000" points="1147.96,-357.34 1154.09,-358.99 1150.32,-353.87 1147.96,-357.34"/>
</g>
<!-- src/entities/cart/model/types.ts -->
<g id="node15" class="node">
<title>src/entities/cart/model/types.ts</title>
<g id="a_node15"><a xlink:href="src/entities/cart/model/types.ts" xlink:title="types.ts">
<path fill="#ddfeff" stroke="black" d="M698.96,-63.88C698.96,-63.88 656.79,-63.88 656.79,-63.88 653.83,-63.88 650.88,-60.92 650.88,-57.96 650.88,-57.96 650.88,-52.04 650.88,-52.04 650.88,-49.08 653.83,-46.12 656.79,-46.12 656.79,-46.12 698.96,-46.12 698.96,-46.12 701.92,-46.12 704.88,-49.08 704.88,-52.04 704.88,-52.04 704.88,-57.96 704.88,-57.96 704.88,-60.92 701.92,-63.88 698.96,-63.88"/>
<text text-anchor="start" x="662.5" y="-51.33" font-family="Helvetica,sans-Serif" font-size="9.00">types.ts</text>
</a>
</g>
</g>
<!-- src/entities/cart/model/store.ts&#45;&gt;src/entities/cart/model/types.ts -->
<g id="edge15" class="edge">
<title>src/entities/cart/model/store.ts&#45;&gt;src/entities/cart/model/types.ts</title>
<path fill="none" stroke="#000000" stroke-opacity="0.200000" d="M579.07,-55C597.75,-55 622.98,-55 643.14,-55"/>
<polygon fill="none" stroke="#000000" stroke-opacity="0.200000" points="643.08,-57.1 649.08,-55 643.08,-52.9 643.08,-57.1"/>
</g>
<!-- src/entities/product/@x/cart.ts -->
<g id="node17" class="node">
<title>src/entities/product/@x/cart.ts</title>
<g id="a_node17"><a xlink:href="src/entities/product/@x/cart.ts" xlink:title="cart.ts">
<path fill="#ddfeff" stroke="black" d="M698.96,-307.88C698.96,-307.88 656.79,-307.88 656.79,-307.88 653.83,-307.88 650.88,-304.92 650.88,-301.96 650.88,-301.96 650.88,-296.04 650.88,-296.04 650.88,-293.08 653.83,-290.12 656.79,-290.12 656.79,-290.12 698.96,-290.12 698.96,-290.12 701.92,-290.12 704.88,-293.08 704.88,-296.04 704.88,-296.04 704.88,-301.96 704.88,-301.96 704.88,-304.92 701.92,-307.88 698.96,-307.88"/>
<text text-anchor="start" x="665.88" y="-295.32" font-family="Helvetica,sans-Serif" font-size="9.00">cart.ts</text>
</a>
</g>
</g>
<!-- src/entities/cart/model/store.ts&#45;&gt;src/entities/product/@x/cart.ts -->
<g id="edge16" class="edge">
<title>src/entities/cart/model/store.ts&#45;&gt;src/entities/product/@x/cart.ts</title>
<path fill="none" stroke="#000000" stroke-width="2" stroke-opacity="0.200000" d="M568.39,-64.13C578.96,-71.18 592.27,-81.91 599.5,-95 618.62,-129.6 599.81,-145.56 612.5,-183 625.34,-220.89 650.38,-260.75 665.17,-282.48"/>
<polygon fill="#000000" fill-opacity="0.200000" stroke="#000000" stroke-width="2" stroke-opacity="0.200000" points="663.25,-283.39 668.38,-287.14 666.7,-281.01 663.25,-283.39"/>
</g>
<!-- src/entities/cart/index.ts&#45;&gt;src/entities/cart/model/store.ts -->
<g id="edge12" class="edge">
<title>src/entities/cart/index.ts&#45;&gt;src/entities/cart/model/store.ts</title>
<path fill="none" stroke="#000000" stroke-width="2" stroke-opacity="0.200000" d="M360.47,-88.42C399.87,-81.5 474.49,-68.39 517.65,-60.81"/>
<polygon fill="#000000" fill-opacity="0.200000" stroke="#000000" stroke-width="2" stroke-opacity="0.200000" points="523.94,-61.84 517.66,-60.81 523.21,-57.7 523.94,-61.84"/>
</g>
<!-- src/entities/cart/index.ts&#45;&gt;src/entities/cart/model/types.ts -->
<g id="edge13" class="edge">
<title>src/entities/cart/index.ts&#45;&gt;src/entities/cart/model/types.ts</title>
<path fill="none" stroke="#000000" stroke-opacity="0.200000" d="M344.27,-83.63C352.32,-76.55 364.3,-67.19 376.5,-62 468.13,-22.97 500.36,-30.48 599.5,-40 613.98,-41.39 629.78,-44.21 643.3,-47.04"/>
<polygon fill="none" stroke="#000000" stroke-opacity="0.200000" points="642.77,-49.07 649.08,-48.28 643.65,-44.97 642.77,-49.07"/>
</g>
<!-- src/entities/cart/ui/Cart.tsx -->
<g id="node16" class="node">
<title>src/entities/cart/ui/Cart.tsx</title>
<g id="a_node16"><a xlink:href="src/entities/cart/ui/Cart.tsx" xlink:title="Cart.tsx">
<path fill="#bbfeff" stroke="black" d="M445.33,-123.88C445.33,-123.88 403.17,-123.88 403.17,-123.88 400.21,-123.88 397.25,-120.92 397.25,-117.96 397.25,-117.96 397.25,-112.04 397.25,-112.04 397.25,-109.08 400.21,-106.12 403.17,-106.12 403.17,-106.12 445.33,-106.12 445.33,-106.12 448.29,-106.12 451.25,-109.08 451.25,-112.04 451.25,-112.04 451.25,-117.96 451.25,-117.96 451.25,-120.92 448.29,-123.88 445.33,-123.88"/>
<text text-anchor="start" x="408.88" y="-111.33" font-family="Helvetica,sans-Serif" font-size="9.00">Cart.tsx</text>
</a>
</g>
</g>
<!-- src/entities/cart/index.ts&#45;&gt;src/entities/cart/ui/Cart.tsx -->
<g id="edge14" class="edge">
<title>src/entities/cart/index.ts&#45;&gt;src/entities/cart/ui/Cart.tsx</title>
<path fill="none" stroke="#000000" stroke-width="2" stroke-opacity="0.200000" d="M360.56,-99.48C369.79,-101.77 380.29,-104.37 390.02,-106.78"/>
<polygon fill="#000000" fill-opacity="0.200000" stroke="#000000" stroke-width="2" stroke-opacity="0.200000" points="395.47,-110.29 390.15,-106.81 396.48,-106.21 395.47,-110.29"/>
</g>
<!-- src/entities/cart/model/types.ts&#45;&gt;src/entities/product/@x/cart.ts -->
<g id="edge18" class="edge">
<title>src/entities/cart/model/types.ts&#45;&gt;src/entities/product/@x/cart.ts</title>
<path fill="none" stroke="#000000" stroke-opacity="0.200000" d="M650.63,-63.68C633.86,-70.71 614.08,-82.54 606,-101 599.23,-116.47 601.56,-160.71 606,-177 617.59,-219.49 648.16,-262.26 665.47,-284.11"/>
<polygon fill="none" stroke="#000000" stroke-opacity="0.200000" points="663.62,-285.16 669.02,-288.52 666.89,-282.53 663.62,-285.16"/>
</g>
<!-- src/entities/cart/ui/Cart.tsx&#45;&gt;src/shared/store/index.ts -->
<g id="edge22" class="edge">
<title>src/entities/cart/ui/Cart.tsx&#45;&gt;src/shared/store/index.ts</title>
<path fill="none" stroke="#000000" stroke-width="2" stroke-opacity="0.200000" d="M431.04,-105.78C442.51,-88.4 470.01,-51.12 504,-35 573.72,-1.94 599.71,-19 676.88,-19 676.88,-19 676.88,-19 959.38,-19 1033.16,-19 1077.01,-1.03 1120,-61 1137.62,-85.57 1114.56,-305.92 1128,-333 1132.6,-342.26 1140.71,-349.98 1148.86,-355.92"/>
<polygon fill="#000000" fill-opacity="0.200000" stroke="#000000" stroke-width="2" stroke-opacity="0.200000" points="1147.57,-357.59 1153.73,-359.19 1149.92,-354.11 1147.57,-357.59"/>
</g>
<!-- src/entities/cart/ui/Cart.tsx&#45;&gt;src/entities/cart/model/store.ts -->
<g id="edge19" class="edge">
<title>src/entities/cart/ui/Cart.tsx&#45;&gt;src/entities/cart/model/store.ts</title>
<path fill="none" stroke="#000000" stroke-width="2" stroke-opacity="0.200000" d="M451.5,-113.53C465.3,-111.95 482.17,-108.69 496,-102 500.25,-99.94 500.43,-98.09 504,-95 513.59,-86.7 524.34,-77.49 533.12,-70.01"/>
<polygon fill="#000000" fill-opacity="0.200000" stroke="#000000" stroke-width="2" stroke-opacity="0.200000" points="534.44,-71.64 537.65,-66.14 531.72,-68.44 534.44,-71.64"/>
</g>
<!-- src/entities/cart/ui/Cart.module.css -->
<g id="node18" class="node">
<title>src/entities/cart/ui/Cart.module.css</title>
<g id="a_node18"><a xlink:href="src/entities/cart/ui/Cart.module.css" xlink:title="Cart.module.css">
<path fill="#ffffcc" stroke="black" d="M586.83,-123.88C586.83,-123.88 516.67,-123.88 516.67,-123.88 513.71,-123.88 510.75,-120.92 510.75,-117.96 510.75,-117.96 510.75,-112.04 510.75,-112.04 510.75,-109.08 513.71,-106.12 516.67,-106.12 516.67,-106.12 586.83,-106.12 586.83,-106.12 589.79,-106.12 592.75,-109.08 592.75,-112.04 592.75,-112.04 592.75,-117.96 592.75,-117.96 592.75,-120.92 589.79,-123.88 586.83,-123.88"/>
<text text-anchor="start" x="518.75" y="-111.33" font-family="Helvetica,sans-Serif" font-size="9.00">Cart.module.css</text>
</a>
</g>
</g>
<!-- src/entities/cart/ui/Cart.tsx&#45;&gt;src/entities/cart/ui/Cart.module.css -->
<g id="edge20" class="edge">
<title>src/entities/cart/ui/Cart.tsx&#45;&gt;src/entities/cart/ui/Cart.module.css</title>
<path fill="none" stroke="#000000" stroke-width="2" stroke-opacity="0.200000" d="M451.56,-115C466.13,-115 484.7,-115 501.83,-115"/>
<polygon fill="#000000" fill-opacity="0.200000" stroke="#000000" stroke-width="2" stroke-opacity="0.200000" points="501.6,-117.1 507.6,-115 501.6,-112.9 501.6,-117.1"/>
</g>
<!-- src/entities/cart/ui/CartItemProduct.tsx -->
<g id="node19" class="node">
<title>src/entities/cart/ui/CartItemProduct.tsx</title>
<g id="a_node19"><a xlink:href="src/entities/cart/ui/CartItemProduct.tsx" xlink:title="CartItemProduct.tsx">
<path fill="#bbfeff" stroke="black" d="M593.58,-153.88C593.58,-153.88 509.92,-153.88 509.92,-153.88 506.96,-153.88 504,-150.92 504,-147.96 504,-147.96 504,-142.04 504,-142.04 504,-139.08 506.96,-136.12 509.92,-136.12 509.92,-136.12 593.58,-136.12 593.58,-136.12 596.54,-136.12 599.5,-139.08 599.5,-142.04 599.5,-142.04 599.5,-147.96 599.5,-147.96 599.5,-150.92 596.54,-153.88 593.58,-153.88"/>
<text text-anchor="start" x="512" y="-141.32" font-family="Helvetica,sans-Serif" font-size="9.00">CartItemProduct.tsx</text>
</a>
</g>
</g>
<!-- src/entities/cart/ui/Cart.tsx&#45;&gt;src/entities/cart/ui/CartItemProduct.tsx -->
<g id="edge21" class="edge">
<title>src/entities/cart/ui/Cart.tsx&#45;&gt;src/entities/cart/ui/CartItemProduct.tsx</title>
<path fill="none" stroke="#000000" stroke-width="2" stroke-opacity="0.200000" d="M451.56,-121.29C466.51,-124.86 485.68,-129.44 503.17,-133.63"/>
<polygon fill="#000000" fill-opacity="0.200000" stroke="#000000" stroke-width="2" stroke-opacity="0.200000" points="502.33,-135.59 508.66,-134.94 503.31,-131.5 502.33,-135.59"/>
</g>
<!-- src/entities/product/model/actions.ts -->
<g id="node21" class="node">
<title>src/entities/product/model/actions.ts</title>
<g id="a_node21"><a xlink:href="src/entities/product/model/actions.ts" xlink:title="actions.ts">
<path fill="#ddfeff" stroke="black" d="M979.58,-327.88C979.58,-327.88 937.17,-327.88 937.17,-327.88 934.21,-327.88 931.25,-324.92 931.25,-321.96 931.25,-321.96 931.25,-316.04 931.25,-316.04 931.25,-313.08 934.21,-310.12 937.17,-310.12 937.17,-310.12 979.58,-310.12 979.58,-310.12 982.54,-310.12 985.5,-313.08 985.5,-316.04 985.5,-316.04 985.5,-321.96 985.5,-321.96 985.5,-324.92 982.54,-327.88 979.58,-327.88"/>
<text text-anchor="start" x="939.25" y="-315.32" font-family="Helvetica,sans-Serif" font-size="9.00">actions.ts</text>
</a>
</g>
</g>
<!-- src/entities/product/@x/cart.ts&#45;&gt;src/entities/product/model/actions.ts -->
<g id="edge26" class="edge">
<title>src/entities/product/@x/cart.ts&#45;&gt;src/entities/product/model/actions.ts</title>
<path fill="none" stroke="#000000" stroke-width="2" stroke-opacity="0.200000" d="M705.34,-298.32C743.54,-297.63 816.27,-297.48 877.75,-304 893.14,-305.63 910,-308.63 924.23,-311.52"/>
<polygon fill="#000000" fill-opacity="0.200000" stroke="#000000" stroke-width="2" stroke-opacity="0.200000" points="929.59,-314.78 924.14,-311.5 930.44,-310.66 929.59,-314.78"/>
</g>
<!-- src/entities/product/model/store.ts -->
<g id="node22" class="node">
<title>src/entities/product/model/store.ts</title>
<g id="a_node22"><a xlink:href="src/entities/product/model/store.ts" xlink:title="store.ts">
<path fill="#ddfeff" stroke="black" d="M843.58,-327.88C843.58,-327.88 801.42,-327.88 801.42,-327.88 798.46,-327.88 795.5,-324.92 795.5,-321.96 795.5,-321.96 795.5,-316.04 795.5,-316.04 795.5,-313.08 798.46,-310.12 801.42,-310.12 801.42,-310.12 843.58,-310.12 843.58,-310.12 846.54,-310.12 849.5,-313.08 849.5,-316.04 849.5,-316.04 849.5,-321.96 849.5,-321.96 849.5,-324.92 846.54,-327.88 843.58,-327.88"/>
<text text-anchor="start" x="807.88" y="-315.32" font-family="Helvetica,sans-Serif" font-size="9.00">store.ts</text>
</a>
</g>
</g>
<!-- src/entities/product/@x/cart.ts&#45;&gt;src/entities/product/model/store.ts -->
<g id="edge27" class="edge">
<title>src/entities/product/@x/cart.ts&#45;&gt;src/entities/product/model/store.ts</title>
<path fill="none" stroke="#000000" stroke-width="2" stroke-opacity="0.200000" d="M705.37,-302.71C728.18,-305.91 761.29,-310.56 786.33,-314.07"/>
<polygon fill="#000000" fill-opacity="0.200000" stroke="#000000" stroke-width="2" stroke-opacity="0.200000" points="785.92,-316.13 792.15,-314.88 786.5,-311.97 785.92,-316.13"/>
</g>
<!-- src/entities/product/model/types.ts -->
<g id="node23" class="node">
<title>src/entities/product/model/types.ts</title>
<g id="a_node23"><a xlink:href="src/entities/product/model/types.ts" xlink:title="types.ts">
<path fill="#ddfeff" stroke="black" d="M1090.08,-320.88C1090.08,-320.88 1047.92,-320.88 1047.92,-320.88 1044.96,-320.88 1042,-317.92 1042,-314.96 1042,-314.96 1042,-309.04 1042,-309.04 1042,-306.08 1044.96,-303.12 1047.92,-303.12 1047.92,-303.12 1090.08,-303.12 1090.08,-303.12 1093.04,-303.12 1096,-306.08 1096,-309.04 1096,-309.04 1096,-314.96 1096,-314.96 1096,-317.92 1093.04,-320.88 1090.08,-320.88"/>
<text text-anchor="start" x="1053.62" y="-308.32" font-family="Helvetica,sans-Serif" font-size="9.00">types.ts</text>
</a>
</g>
</g>
<!-- src/entities/product/@x/cart.ts&#45;&gt;src/entities/product/model/types.ts -->
<g id="edge28" class="edge">
<title>src/entities/product/@x/cart.ts&#45;&gt;src/entities/product/model/types.ts</title>
<path fill="none" stroke="#000000" stroke-opacity="0.200000" d="M705.16,-297.5C722.73,-296.57 746.37,-295.47 767.25,-295 885.78,-292.32 918.62,-267.76 1034,-295 1038.28,-296.01 1042.63,-297.65 1046.74,-299.51"/>
<polygon fill="none" stroke="#000000" stroke-opacity="0.200000" points="1045.68,-301.33 1051.98,-302.13 1047.55,-297.57 1045.68,-301.33"/>
</g>
<!-- src/entities/cart/ui/CartItemProduct.tsx&#45;&gt;src/entities/cart/model/types.ts -->
<g id="edge23" class="edge">
<title>src/entities/cart/ui/CartItemProduct.tsx&#45;&gt;src/entities/cart/model/types.ts</title>
<path fill="none" stroke="#000000" stroke-opacity="0.200000" d="M591.62,-135.76C594.48,-134.14 597.16,-132.24 599.5,-130 611.5,-118.53 602,-107.85 612.5,-95 621.91,-83.48 635.57,-74.33 647.88,-67.71"/>
<polygon fill="none" stroke="#000000" stroke-opacity="0.200000" points="648.82,-69.59 653.2,-64.98 646.91,-65.85 648.82,-69.59"/>
</g>
<!-- src/entities/cart/ui/CartItemProduct.tsx&#45;&gt;src/entities/product/@x/cart.ts -->
<g id="edge25" class="edge">
<title>src/entities/cart/ui/CartItemProduct.tsx&#45;&gt;src/entities/product/@x/cart.ts</title>
<path fill="none" stroke="#000000" stroke-opacity="0.200000" d="M560.14,-154.17C580.79,-179.79 639.23,-252.29 664.72,-283.93"/>
<polygon fill="none" stroke="#000000" stroke-opacity="0.200000" points="663.01,-285.15 668.41,-288.5 666.28,-282.51 663.01,-285.15"/>
</g>
<!-- src/entities/cart/ui/CartItemProduct.module.css -->
<g id="node20" class="node">
<title>src/entities/cart/ui/CartItemProduct.module.css</title>
<g id="a_node20"><a xlink:href="src/entities/cart/ui/CartItemProduct.module.css" xlink:title="CartItemProduct.module.css">
<path fill="#ffffcc" stroke="black" d="M737.33,-153.88C737.33,-153.88 618.42,-153.88 618.42,-153.88 615.46,-153.88 612.5,-150.92 612.5,-147.96 612.5,-147.96 612.5,-142.04 612.5,-142.04 612.5,-139.08 615.46,-136.12 618.42,-136.12 618.42,-136.12 737.33,-136.12 737.33,-136.12 740.29,-136.12 743.25,-139.08 743.25,-142.04 743.25,-142.04 743.25,-147.96 743.25,-147.96 743.25,-150.92 740.29,-153.88 737.33,-153.88"/>
<text text-anchor="start" x="620.5" y="-141.32" font-family="Helvetica,sans-Serif" font-size="9.00">CartItemProduct.module.css</text>
</a>
</g>
</g>
<!-- src/entities/cart/ui/CartItemProduct.tsx&#45;&gt;src/entities/cart/ui/CartItemProduct.module.css -->
<g id="edge24" class="edge">
<title>src/entities/cart/ui/CartItemProduct.tsx&#45;&gt;src/entities/cart/ui/CartItemProduct.module.css</title>
<path fill="none" stroke="#000000" stroke-width="2" stroke-opacity="0.200000" d="M599.68,-145C600.96,-145 602.26,-145 603.56,-145"/>
<polygon fill="#000000" fill-opacity="0.200000" stroke="#000000" stroke-width="2" stroke-opacity="0.200000" points="603.21,-147.1 609.21,-145 603.21,-142.9 603.21,-147.1"/>
</g>
<!-- src/entities/product/model/actions.ts&#45;&gt;src/shared/store/index.ts -->
<g id="edge34" class="edge">
<title>src/entities/product/model/actions.ts&#45;&gt;src/shared/store/index.ts</title>
<path fill="none" stroke="#000000" stroke-width="2" stroke-opacity="0.200000" d="M985.68,-325.25C1024.22,-334.42 1096.09,-351.51 1139,-361.71"/>
<polygon fill="#000000" fill-opacity="0.200000" stroke="#000000" stroke-width="2" stroke-opacity="0.200000" points="1138.43,-363.73 1144.75,-363.07 1139.4,-359.64 1138.43,-363.73"/>
</g>
<!-- src/entities/product/model/actions.ts&#45;&gt;src/entities/product/model/types.ts -->
<g id="edge33" class="edge">
<title>src/entities/product/model/actions.ts&#45;&gt;src/entities/product/model/types.ts</title>
<path fill="none" stroke="#000000" stroke-opacity="0.200000" d="M985.95,-317.29C1000.52,-316.35 1018.74,-315.17 1034.3,-314.17"/>
<polygon fill="none" stroke="#000000" stroke-opacity="0.200000" points="1034.34,-316.27 1040.19,-313.79 1034.07,-312.08 1034.34,-316.27"/>
</g>
<!-- src/entities/product/model/store.ts&#45;&gt;src/shared/store/index.ts -->
<g id="edge37" class="edge">
<title>src/entities/product/model/store.ts&#45;&gt;src/shared/store/index.ts</title>
<path fill="none" stroke="#000000" stroke-width="2" stroke-opacity="0.200000" d="M842.11,-309.78C893.15,-285.97 1037.04,-228.85 1120,-297 1132.67,-307.4 1119.36,-319.07 1128,-333 1133.53,-341.92 1142,-349.63 1150.16,-355.67"/>
<polygon fill="#000000" fill-opacity="0.200000" stroke="#000000" stroke-width="2" stroke-opacity="0.200000" points="1148.86,-357.33 1154.99,-359.01 1151.25,-353.87 1148.86,-357.33"/>
</g>
<!-- src/entities/product/model/store.ts&#45;&gt;src/entities/product/model/actions.ts -->
<g id="edge35" class="edge">
<title>src/entities/product/model/store.ts&#45;&gt;src/entities/product/model/actions.ts</title>
<path fill="none" stroke="#000000" stroke-width="2" stroke-opacity="0.200000" d="M849.95,-319C870.58,-319 899.42,-319 922.03,-319"/>
<polygon fill="#000000" fill-opacity="0.200000" stroke="#000000" stroke-width="2" stroke-opacity="0.200000" points="921.95,-321.1 927.95,-319 921.95,-316.9 921.95,-321.1"/>
</g>
<!-- src/entities/product/model/store.ts&#45;&gt;src/entities/product/model/types.ts -->
<g id="edge36" class="edge">
<title>src/entities/product/model/store.ts&#45;&gt;src/entities/product/model/types.ts</title>
<path fill="none" stroke="#000000" stroke-opacity="0.200000" d="M849.79,-311.73C862.12,-308.69 877.08,-305.51 890.75,-304 954.03,-297.03 970.76,-296.66 1034,-304 1034.16,-304.02 1034.32,-304.04 1034.48,-304.06"/>
<polygon fill="none" stroke="#000000" stroke-opacity="0.200000" points="1034,-306.11 1040.25,-304.96 1034.65,-301.96 1034,-306.11"/>
</g>
<!-- src/shared/lib/type&#45;utils.ts -->
<g id="node26" class="node">
<title>src/shared/lib/type&#45;utils.ts</title>
<g id="a_node26"><a xlink:href="src/shared/lib/type-utils.ts" xlink:title="type&#45;utils.ts">
<path fill="#ddfeff" stroke="black" d="M1199.83,-303.88C1199.83,-303.88 1149.92,-303.88 1149.92,-303.88 1146.96,-303.88 1144,-300.92 1144,-297.96 1144,-297.96 1144,-292.04 1144,-292.04 1144,-289.08 1146.96,-286.12 1149.92,-286.12 1149.92,-286.12 1199.83,-286.12 1199.83,-286.12 1202.79,-286.12 1205.75,-289.08 1205.75,-292.04 1205.75,-292.04 1205.75,-297.96 1205.75,-297.96 1205.75,-300.92 1202.79,-303.88 1199.83,-303.88"/>
<text text-anchor="start" x="1152" y="-291.32" font-family="Helvetica,sans-Serif" font-size="9.00">type&#45;utils.ts</text>
</a>
</g>
</g>
<!-- src/entities/product/model/types.ts&#45;&gt;src/shared/lib/type&#45;utils.ts -->
<g id="edge38" class="edge">
<title>src/entities/product/model/types.ts&#45;&gt;src/shared/lib/type&#45;utils.ts</title>
<path fill="none" stroke="#000000" stroke-opacity="0.200000" d="M1096.48,-307.67C1108.65,-305.67 1123.3,-303.28 1136.57,-301.11"/>
<polygon fill="none" stroke="#000000" stroke-opacity="0.200000" points="1136.69,-303.21 1142.28,-300.17 1136.01,-299.07 1136.69,-303.21"/>
</g>
<!-- src/entities/product/index.ts&#45;&gt;src/entities/product/model/actions.ts -->
<g id="edge29" class="edge">
<title>src/entities/product/index.ts&#45;&gt;src/entities/product/model/actions.ts</title>
<path fill="none" stroke="#000000" stroke-width="2" stroke-opacity="0.200000" d="M579.12,-483.55C652.64,-487.6 855.92,-496.87 877.75,-477 897.26,-459.25 876.52,-381.21 890.75,-359 898.76,-346.51 912.18,-337.36 924.9,-331"/>
<polygon fill="#000000" fill-opacity="0.200000" stroke="#000000" stroke-width="2" stroke-opacity="0.200000" points="931.04,-330.42 924.72,-331.08 929.25,-326.62 931.04,-330.42"/>
</g>
<!-- src/entities/product/index.ts&#45;&gt;src/entities/product/model/store.ts -->
<g id="edge30" class="edge">
<title>src/entities/product/index.ts&#45;&gt;src/entities/product/model/store.ts</title>
<path fill="none" stroke="#000000" stroke-width="2" stroke-opacity="0.200000" d="M554.25,-472.73C558.56,-449.36 573.28,-387.82 612.5,-359 665.65,-319.95 697.38,-359.84 759.25,-337 763.18,-335.55 763.38,-333.62 767.25,-332 773.27,-329.48 779.88,-327.38 786.35,-325.66"/>
<polygon fill="#000000" fill-opacity="0.200000" stroke="#000000" stroke-width="2" stroke-opacity="0.200000" points="786.74,-327.73 792.08,-324.27 785.75,-323.65 786.74,-327.73"/>
</g>
<!-- src/entities/product/index.ts&#45;&gt;src/entities/product/model/types.ts -->
<g id="edge31" class="edge">
<title>src/entities/product/index.ts&#45;&gt;src/entities/product/model/types.ts</title>
<path fill="none" stroke="#000000" stroke-opacity="0.200000" d="M576.16,-491.37C653.78,-520.72 905.02,-601.75 1034,-477 1047.16,-464.27 1038.36,-412.94 1042,-395 1046.85,-371.13 1055.91,-344.39 1061.95,-327.87"/>
<polygon fill="none" stroke="#000000" stroke-opacity="0.200000" points="1063.84,-328.82 1063.96,-322.47 1059.9,-327.36 1063.84,-328.82"/>
</g>
<!-- src/entities/product/ui/ProductList.tsx -->
<g id="node25" class="node">
<title>src/entities/product/ui/ProductList.tsx</title>
<g id="a_node25"><a xlink:href="src/entities/product/ui/ProductList.tsx" xlink:title="ProductList.tsx">
<path fill="#bbfeff" stroke="black" d="M709.58,-402.88C709.58,-402.88 646.17,-402.88 646.17,-402.88 643.21,-402.88 640.25,-399.92 640.25,-396.96 640.25,-396.96 640.25,-391.04 640.25,-391.04 640.25,-388.08 643.21,-385.12 646.17,-385.12 646.17,-385.12 709.58,-385.12 709.58,-385.12 712.54,-385.12 715.5,-388.08 715.5,-391.04 715.5,-391.04 715.5,-396.96 715.5,-396.96 715.5,-399.92 712.54,-402.88 709.58,-402.88"/>
<text text-anchor="start" x="648.25" y="-390.32" font-family="Helvetica,sans-Serif" font-size="9.00">ProductList.tsx</text>
</a>
</g>
</g>
<!-- src/entities/product/index.ts&#45;&gt;src/entities/product/ui/ProductList.tsx -->
<g id="edge32" class="edge">
<title>src/entities/product/index.ts&#45;&gt;src/entities/product/ui/ProductList.tsx</title>
<path fill="none" stroke="#000000" stroke-width="2" stroke-opacity="0.200000" d="M557.37,-472.65C565.88,-456.47 585.65,-423.41 612.5,-407 618.76,-403.18 625.93,-400.45 633.17,-398.52"/>
<polygon fill="#000000" fill-opacity="0.200000" stroke="#000000" stroke-width="2" stroke-opacity="0.200000" points="639.32,-399.23 633,-398.56 638.36,-395.14 639.32,-399.23"/>
</g>
<!-- src/entities/product/ui/ProductList.tsx&#45;&gt;src/shared/store/index.ts -->
<g id="edge48" class="edge">
<title>src/entities/product/ui/ProductList.tsx&#45;&gt;src/shared/store/index.ts</title>
<path fill="none" stroke="#000000" stroke-width="2" stroke-opacity="0.200000" d="M688.17,-403.19C703.25,-417.36 734.63,-443.97 767.25,-454 909.03,-497.58 1085.59,-416.84 1149.42,-383.47"/>
<polygon fill="#000000" fill-opacity="0.200000" stroke="#000000" stroke-width="2" stroke-opacity="0.200000" points="1150.34,-385.36 1154.65,-380.7 1148.37,-381.65 1150.34,-385.36"/>
</g>
<!-- src/entities/product/ui/ProductList.tsx&#45;&gt;src/entities/cart/@x/product.ts -->
<g id="edge47" class="edge">
<title>src/entities/product/ui/ProductList.tsx&#45;&gt;src/entities/cart/@x/product.ts</title>
<path fill="none" stroke="#000000" stroke-width="2" stroke-opacity="0.200000" d="M663.08,-384.79C648.74,-374.59 626.45,-356.93 612.5,-337 603.46,-324.09 609.83,-315.91 599.5,-304 561.76,-260.51 500,-231.88 461.04,-217.07"/>
<polygon fill="#000000" fill-opacity="0.200000" stroke="#000000" stroke-width="2" stroke-opacity="0.200000" points="461.81,-215.11 455.46,-215 460.35,-219.05 461.81,-215.11"/>
</g>
<!-- src/entities/product/ui/ProductList.tsx&#45;&gt;src/entities/product/model/actions.ts -->
<g id="edge42" class="edge">
<title>src/entities/product/ui/ProductList.tsx&#45;&gt;src/entities/product/model/actions.ts</title>
<path fill="none" stroke="#000000" stroke-width="2" stroke-opacity="0.200000" d="M715.77,-395.23C730.55,-394 746.94,-390.27 759.25,-381 765.92,-375.98 760.77,-369.26 767.25,-364 779.24,-354.27 870.34,-335.62 921.96,-325.66"/>
<polygon fill="#000000" fill-opacity="0.200000" stroke="#000000" stroke-width="2" stroke-opacity="0.200000" points="922.34,-327.72 927.84,-324.53 921.55,-323.6 922.34,-327.72"/>
</g>
<!-- src/entities/product/ui/ProductList.tsx&#45;&gt;src/entities/product/model/store.ts -->
<g id="edge43" class="edge">
<title>src/entities/product/ui/ProductList.tsx&#45;&gt;src/entities/product/model/store.ts</title>
<path fill="none" stroke="#000000" stroke-width="2" stroke-opacity="0.200000" d="M715.63,-396.6C730.91,-395.71 747.73,-391.86 759.25,-381 771.17,-369.75 757.06,-357.83 767.25,-345 772.4,-338.51 779.57,-333.55 787.01,-329.79"/>
<polygon fill="#000000" fill-opacity="0.200000" stroke="#000000" stroke-width="2" stroke-opacity="0.200000" points="787.72,-331.77 792.34,-327.4 786.01,-327.94 787.72,-331.77"/>
</g>
<!-- src/entities/product/ui/ProductCard.tsx -->
<g id="node27" class="node">
<title>src/entities/product/ui/ProductCard.tsx</title>
<g id="a_node27"><a xlink:href="src/entities/product/ui/ProductCard.tsx" xlink:title="ProductCard.tsx">
<path fill="#bbfeff" stroke="black" d="M857.21,-387.88C857.21,-387.88 787.79,-387.88 787.79,-387.88 784.83,-387.88 781.88,-384.92 781.88,-381.96 781.88,-381.96 781.88,-376.04 781.88,-376.04 781.88,-373.08 784.83,-370.12 787.79,-370.12 787.79,-370.12 857.21,-370.12 857.21,-370.12 860.17,-370.12 863.12,-373.08 863.12,-376.04 863.12,-376.04 863.12,-381.96 863.12,-381.96 863.12,-384.92 860.17,-387.88 857.21,-387.88"/>
<text text-anchor="start" x="789.88" y="-375.32" font-family="Helvetica,sans-Serif" font-size="9.00">ProductCard.tsx</text>
</a>
</g>
</g>
<!-- src/entities/product/ui/ProductList.tsx&#45;&gt;src/entities/product/ui/ProductCard.tsx -->
<g id="edge44" class="edge">
<title>src/entities/product/ui/ProductList.tsx&#45;&gt;src/entities/product/ui/ProductCard.tsx</title>
<path fill="none" stroke="#000000" stroke-width="2" stroke-opacity="0.200000" d="M715.98,-390.1C733.28,-388.28 754.11,-386.09 772.68,-384.13"/>
<polygon fill="#000000" fill-opacity="0.200000" stroke="#000000" stroke-width="2" stroke-opacity="0.200000" points="772.83,-386.23 778.57,-383.51 772.39,-382.05 772.83,-386.23"/>
</g>
<!-- src/entities/product/ui/ProductCardStub.tsx -->
<g id="node30" class="node">
<title>src/entities/product/ui/ProductCardStub.tsx</title>
<g id="a_node30"><a xlink:href="src/entities/product/ui/ProductCardStub.tsx" xlink:title="ProductCardStub.tsx">
<path fill="#bbfeff" stroke="black" d="M866.58,-447.88C866.58,-447.88 778.42,-447.88 778.42,-447.88 775.46,-447.88 772.5,-444.92 772.5,-441.96 772.5,-441.96 772.5,-436.04 772.5,-436.04 772.5,-433.08 775.46,-430.12 778.42,-430.12 778.42,-430.12 866.58,-430.12 866.58,-430.12 869.54,-430.12 872.5,-433.08 872.5,-436.04 872.5,-436.04 872.5,-441.96 872.5,-441.96 872.5,-444.92 869.54,-447.88 866.58,-447.88"/>
<text text-anchor="start" x="780.5" y="-435.32" font-family="Helvetica,sans-Serif" font-size="9.00">ProductCardStub.tsx</text>
</a>
</g>
</g>
<!-- src/entities/product/ui/ProductList.tsx&#45;&gt;src/entities/product/ui/ProductCardStub.tsx -->
<g id="edge45" class="edge">
<title>src/entities/product/ui/ProductList.tsx&#45;&gt;src/entities/product/ui/ProductCardStub.tsx</title>
<path fill="none" stroke="#000000" stroke-width="2" stroke-opacity="0.200000" d="M715.77,-392.77C730.55,-394 746.94,-397.73 759.25,-407 765.92,-412.02 760.87,-418.62 767.25,-424 767.66,-424.34 768.07,-424.68 768.5,-425.01"/>
<polygon fill="#000000" fill-opacity="0.200000" stroke="#000000" stroke-width="2" stroke-opacity="0.200000" points="767.12,-426.62 773.31,-428.07 769.37,-423.08 767.12,-426.62"/>
</g>
<!-- src/entities/product/ui/ProductList.module.css -->
<g id="node31" class="node">
<title>src/entities/product/ui/ProductList.module.css</title>
<g id="a_node31"><a xlink:href="src/entities/product/ui/ProductList.module.css" xlink:title="ProductList.module.css">
<path fill="#ffffcc" stroke="black" d="M871.83,-417.88C871.83,-417.88 773.17,-417.88 773.17,-417.88 770.21,-417.88 767.25,-414.92 767.25,-411.96 767.25,-411.96 767.25,-406.04 767.25,-406.04 767.25,-403.08 770.21,-400.12 773.17,-400.12 773.17,-400.12 871.83,-400.12 871.83,-400.12 874.79,-400.12 877.75,-403.08 877.75,-406.04 877.75,-406.04 877.75,-411.96 877.75,-411.96 877.75,-414.92 874.79,-417.88 871.83,-417.88"/>
<text text-anchor="start" x="775.25" y="-405.32" font-family="Helvetica,sans-Serif" font-size="9.00">ProductList.module.css</text>
</a>
</g>
</g>
<!-- src/entities/product/ui/ProductList.tsx&#45;&gt;src/entities/product/ui/ProductList.module.css -->
<g id="edge46" class="edge">
<title>src/entities/product/ui/ProductList.tsx&#45;&gt;src/entities/product/ui/ProductList.module.css</title>
<path fill="none" stroke="#000000" stroke-width="2" stroke-opacity="0.200000" d="M715.98,-397.9C728.83,-399.25 743.62,-400.81 757.98,-402.32"/>
<polygon fill="#000000" fill-opacity="0.200000" stroke="#000000" stroke-width="2" stroke-opacity="0.200000" points="757.65,-404.4 763.84,-402.94 758.09,-400.22 757.65,-404.4"/>
</g>
<!-- src/entities/product/ui/ProductCard.tsx&#45;&gt;src/entities/product/model/types.ts -->
<g id="edge39" class="edge">
<title>src/entities/product/ui/ProductCard.tsx&#45;&gt;src/entities/product/model/types.ts</title>
<path fill="none" stroke="#000000" stroke-opacity="0.200000" d="M863.54,-385.59C868.7,-387.67 873.62,-390.41 877.75,-394 888.71,-403.54 878.6,-416.02 890.75,-424 904.06,-432.74 1021.21,-433.48 1034,-424 1063.9,-401.83 1068.42,-354.04 1068.57,-328.65"/>
<polygon fill="none" stroke="#000000" stroke-opacity="0.200000" points="1070.67,-328.75 1068.51,-322.77 1066.47,-328.79 1070.67,-328.75"/>
</g>
<!-- src/entities/product/ui/ProductCart.module.css -->
<g id="node28" class="node">
<title>src/entities/product/ui/ProductCart.module.css</title>
<g id="a_node28"><a xlink:href="src/entities/product/ui/ProductCart.module.css" xlink:title="ProductCart.module.css">
<path fill="#ffffcc" stroke="black" d="M1009.21,-387.88C1009.21,-387.88 907.54,-387.88 907.54,-387.88 904.58,-387.88 901.62,-384.92 901.62,-381.96 901.62,-381.96 901.62,-376.04 901.62,-376.04 901.62,-373.08 904.58,-370.12 907.54,-370.12 907.54,-370.12 1009.21,-370.12 1009.21,-370.12 1012.17,-370.12 1015.12,-373.08 1015.12,-376.04 1015.12,-376.04 1015.12,-381.96 1015.12,-381.96 1015.12,-384.92 1012.17,-387.88 1009.21,-387.88"/>
<text text-anchor="start" x="909.62" y="-375.32" font-family="Helvetica,sans-Serif" font-size="9.00">ProductCart.module.css</text>
</a>
</g>
</g>
<!-- src/entities/product/ui/ProductCard.tsx&#45;&gt;src/entities/product/ui/ProductCart.module.css -->
<g id="edge40" class="edge">
<title>src/entities/product/ui/ProductCard.tsx&#45;&gt;src/entities/product/ui/ProductCart.module.css</title>
<path fill="none" stroke="#000000" stroke-width="2" stroke-opacity="0.200000" d="M863.3,-379C872.39,-379 882.28,-379 892.13,-379"/>
<polygon fill="#000000" fill-opacity="0.200000" stroke="#000000" stroke-width="2" stroke-opacity="0.200000" points="892.1,-381.1 898.1,-379 892.1,-376.9 892.1,-381.1"/>
</g>
<!-- src/entities/product/ui/ProductCardStub.module.css -->
<g id="node29" class="node">
<title>src/entities/product/ui/ProductCardStub.module.css</title>
<g id="a_node29"><a xlink:href="src/entities/product/ui/ProductCardStub.module.css" xlink:title="ProductCardStub.module.css">
<path fill="#ffffcc" stroke="black" d="M1020.08,-417.88C1020.08,-417.88 896.67,-417.88 896.67,-417.88 893.71,-417.88 890.75,-414.92 890.75,-411.96 890.75,-411.96 890.75,-406.04 890.75,-406.04 890.75,-403.08 893.71,-400.12 896.67,-400.12 896.67,-400.12 1020.08,-400.12 1020.08,-400.12 1023.04,-400.12 1026,-403.08 1026,-406.04 1026,-406.04 1026,-411.96 1026,-411.96 1026,-414.92 1023.04,-417.88 1020.08,-417.88"/>
<text text-anchor="start" x="898.75" y="-405.32" font-family="Helvetica,sans-Serif" font-size="9.00">ProductCardStub.module.css</text>
</a>
</g>
</g>
<!-- src/entities/product/ui/ProductCardStub.tsx&#45;&gt;src/entities/product/ui/ProductCardStub.module.css -->
<g id="edge41" class="edge">
<title>src/entities/product/ui/ProductCardStub.tsx&#45;&gt;src/entities/product/ui/ProductCardStub.module.css</title>
<path fill="none" stroke="#000000" stroke-width="2" stroke-opacity="0.200000" d="M859.01,-429.64C869.23,-427.05 880.41,-424.31 890.75,-422 893.51,-421.38 896.34,-420.77 899.2,-420.16"/>
<polygon fill="#000000" fill-opacity="0.200000" stroke="#000000" stroke-width="2" stroke-opacity="0.200000" points="899.42,-422.25 904.87,-418.97 898.57,-418.14 899.42,-422.25"/>
</g>
<!-- src/shared/store/types.ts -->
<g id="node33" class="node">
<title>src/shared/store/types.ts</title>
<g id="a_node33"><a xlink:href="src/shared/store/types.ts" xlink:title="types.ts">
<path fill="#ddfeff" stroke="black" d="M1419.33,-393.88C1419.33,-393.88 1377.17,-393.88 1377.17,-393.88 1374.21,-393.88 1371.25,-390.92 1371.25,-387.96 1371.25,-387.96 1371.25,-382.04 1371.25,-382.04 1371.25,-379.08 1374.21,-376.12 1377.17,-376.12 1377.17,-376.12 1419.33,-376.12 1419.33,-376.12 1422.29,-376.12 1425.25,-379.08 1425.25,-382.04 1425.25,-382.04 1425.25,-387.96 1425.25,-387.96 1425.25,-390.92 1422.29,-393.88 1419.33,-393.88"/>
<text text-anchor="start" x="1382.88" y="-381.32" font-family="Helvetica,sans-Serif" font-size="9.00">types.ts</text>
</a>
</g>
</g>
<!-- src/shared/store/createAppAsyncThunk.ts&#45;&gt;src/shared/store/types.ts -->
<g id="edge51" class="edge">
<title>src/shared/store/createAppAsyncThunk.ts&#45;&gt;src/shared/store/types.ts</title>
<path fill="none" stroke="#000000" stroke-opacity="0.200000" d="M1317.4,-405.67C1332.25,-401.83 1349.34,-397.4 1363.9,-393.64"/>
<polygon fill="none" stroke="#000000" stroke-opacity="0.200000" points="1364.07,-395.76 1369.35,-392.22 1363.02,-391.69 1364.07,-395.76"/>
</g>
<!-- src/shared/store/useAppDispatch.ts&#45;&gt;src/shared/store/types.ts -->
<g id="edge56" class="edge">
<title>src/shared/store/useAppDispatch.ts&#45;&gt;src/shared/store/types.ts</title>
<path fill="none" stroke="#000000" stroke-opacity="0.200000" d="M1317.4,-364.33C1332.25,-368.17 1349.34,-372.6 1363.9,-376.36"/>
<polygon fill="none" stroke="#000000" stroke-opacity="0.200000" points="1363.02,-378.31 1369.35,-377.78 1364.07,-374.24 1363.02,-378.31"/>
</g>
<!-- src/shared/store/useAppSelector.ts&#45;&gt;src/shared/store/types.ts -->
<g id="edge57" class="edge">
<title>src/shared/store/useAppSelector.ts&#45;&gt;src/shared/store/types.ts</title>
<path fill="none" stroke="#000000" stroke-opacity="0.200000" d="M1325.84,-385C1338.3,-385 1351.64,-385 1363.38,-385"/>
<polygon fill="none" stroke="#000000" stroke-opacity="0.200000" points="1363.32,-387.1 1369.32,-385 1363.32,-382.9 1363.32,-387.1"/>
</g>
<!-- src/shared/ui/layout/Layout.module.css -->
<g id="node38" class="node">
<title>src/shared/ui/layout/Layout.module.css</title>
<g id="a_node38"><a xlink:href="src/shared/ui/layout/Layout.module.css" xlink:title="Layout.module.css">
<path fill="#ffffcc" stroke="black" d="M1438.58,-521.88C1438.58,-521.88 1357.92,-521.88 1357.92,-521.88 1354.96,-521.88 1352,-518.92 1352,-515.96 1352,-515.96 1352,-510.04 1352,-510.04 1352,-507.08 1354.96,-504.12 1357.92,-504.12 1357.92,-504.12 1438.58,-504.12 1438.58,-504.12 1441.54,-504.12 1444.5,-507.08 1444.5,-510.04 1444.5,-510.04 1444.5,-515.96 1444.5,-515.96 1444.5,-518.92 1441.54,-521.88 1438.58,-521.88"/>
<text text-anchor="start" x="1360" y="-509.32" font-family="Helvetica,sans-Serif" font-size="9.00">Layout.module.css</text>
</a>
</g>
</g>
<!-- src/shared/ui/layout/Layout.tsx&#45;&gt;src/shared/ui/layout/Layout.module.css -->
<g id="edge59" class="edge">
<title>src/shared/ui/layout/Layout.tsx&#45;&gt;src/shared/ui/layout/Layout.module.css</title>
<path fill="none" stroke="#000000" stroke-width="2" stroke-opacity="0.200000" d="M1309.43,-513C1319.57,-513 1331.39,-513 1343.01,-513"/>
<polygon fill="#000000" fill-opacity="0.200000" stroke="#000000" stroke-width="2" stroke-opacity="0.200000" points="1342.81,-515.1 1348.81,-513 1342.81,-510.9 1342.81,-515.1"/>
</g>
<!-- src/vite&#45;env.d.ts -->
<g id="node39" class="node">
<title>src/vite&#45;env.d.ts</title>
<g id="a_node39"><a xlink:href="src/vite-env.d.ts" xlink:title="vite&#45;env.d.ts">
<path fill="#ccffcc" stroke="black" d="M77.46,-682.88C77.46,-682.88 24.54,-682.88 24.54,-682.88 21.58,-682.88 18.62,-679.92 18.62,-676.96 18.62,-676.96 18.62,-671.04 18.62,-671.04 18.62,-668.08 21.58,-665.12 24.54,-665.12 24.54,-665.12 77.46,-665.12 77.46,-665.12 80.42,-665.12 83.38,-668.08 83.38,-671.04 83.38,-671.04 83.38,-676.96 83.38,-676.96 83.38,-679.92 80.42,-682.88 77.46,-682.88"/>
<text text-anchor="start" x="26.62" y="-670.33" font-family="Helvetica,sans-Serif" font-size="9.00">vite&#45;env.d.ts</text>
</a>
</g>
</g>
<!-- src/widgets/header/ui/Header.module.css -->
<g id="node41" class="node">
<title>src/widgets/header/ui/Header.module.css</title>
<g id="a_node41"><a xlink:href="src/widgets/header/ui/Header.module.css" xlink:title="Header.module.css">
<path fill="#ffffcc" stroke="black" d="M466.08,-623.88C466.08,-623.88 382.42,-623.88 382.42,-623.88 379.46,-623.88 376.5,-620.92 376.5,-617.96 376.5,-617.96 376.5,-612.04 376.5,-612.04 376.5,-609.08 379.46,-606.12 382.42,-606.12 382.42,-606.12 466.08,-606.12 466.08,-606.12 469.04,-606.12 472,-609.08 472,-612.04 472,-612.04 472,-617.96 472,-617.96 472,-620.92 469.04,-623.88 466.08,-623.88"/>
<text text-anchor="start" x="384.5" y="-611.33" font-family="Helvetica,sans-Serif" font-size="9.00">Header.module.css</text>
</a>
</g>
</g>
<!-- src/widgets/header/ui/Header.tsx&#45;&gt;src/widgets/header/ui/Header.module.css -->
<g id="edge61" class="edge">
<title>src/widgets/header/ui/Header.tsx&#45;&gt;src/widgets/header/ui/Header.module.css</title>
<path fill="none" stroke="#000000" stroke-width="2" stroke-opacity="0.200000" d="M363.97,-615C365.08,-615 366.2,-615 367.33,-615"/>
<polygon fill="#000000" fill-opacity="0.200000" stroke="#000000" stroke-width="2" stroke-opacity="0.200000" points="367.14,-617.1 373.14,-615 367.14,-612.9 367.14,-617.1"/>
</g>
</g>
</svg>
