<?xml version="1.0" encoding="UTF-8" standalone="no"?>
<!DOCTYPE svg PUBLIC "-//W3C//DTD SVG 1.1//EN"
 "http://www.w3.org/Graphics/SVG/1.1/DTD/svg11.dtd">
<!-- Generated by graphviz version 12.0.0 (20240704.0754)
 -->
<!-- Title: dependency&#45;cruiser output Pages: 1 -->
<svg width="567pt" height="306pt"
 viewBox="0.00 0.00 566.88 306.00" xmlns="http://www.w3.org/2000/svg" xmlns:xlink="http://www.w3.org/1999/xlink">
<g id="graph0" class="graph" transform="scale(1 1) rotate(0) translate(4 302)">
<title>dependency&#45;cruiser output</title>
<polygon fill="white" stroke="none" points="-4,4 -4,-302 562.88,-302 562.88,4 -4,4"/>
<g id="clust1" class="cluster">
<title>cluster_src</title>
<path fill="#ffffff" stroke="black" stroke-width="2" d="M20,-8C20,-8 538.88,-8 538.88,-8 544.88,-8 550.88,-14 550.88,-20 550.88,-20 550.88,-278 550.88,-278 550.88,-284 544.88,-290 538.88,-290 538.88,-290 20,-290 20,-290 14,-290 8,-284 8,-278 8,-278 8,-20 8,-20 8,-14 14,-8 20,-8"/>
<text text-anchor="middle" x="279.44" y="-277.45" font-family="Helvetica,sans-Serif" font-weight="bold" font-size="9.00">src</text>
</g>
<g id="clust2" class="cluster">
<title>cluster_src/app</title>
<path fill="#ffffff" stroke="black" stroke-width="2" d="M28,-47C28,-47 244.12,-47 244.12,-47 250.12,-47 256.12,-53 256.12,-59 256.12,-59 256.12,-121 256.12,-121 256.12,-127 250.12,-133 244.12,-133 244.12,-133 28,-133 28,-133 22,-133 16,-127 16,-121 16,-121 16,-59 16,-59 16,-53 22,-47 28,-47"/>
<text text-anchor="middle" x="136.06" y="-120.45" font-family="Helvetica,sans-Serif" font-weight="bold" font-size="9.00">app</text>
</g>
<g id="clust3" class="cluster">
<title>cluster_src/app/layouts</title>
<path fill="#ffffff" stroke="black" stroke-width="2" d="M170.38,-55C170.38,-55 236.12,-55 236.12,-55 242.12,-55 248.12,-61 248.12,-67 248.12,-67 248.12,-95 248.12,-95 248.12,-101 242.12,-107 236.12,-107 236.12,-107 170.38,-107 170.38,-107 164.38,-107 158.38,-101 158.38,-95 158.38,-95 158.38,-67 158.38,-67 158.38,-61 164.38,-55 170.38,-55"/>
<text text-anchor="middle" x="203.25" y="-94.45" font-family="Helvetica,sans-Serif" font-weight="bold" font-size="9.00">layouts</text>
</g>
<g id="clust4" class="cluster">
<title>cluster_src/pages</title>
<path fill="#ffffff" stroke="black" stroke-width="2" d="M173,-141C173,-141 233.5,-141 233.5,-141 239.5,-141 245.5,-147 245.5,-153 245.5,-153 245.5,-241 245.5,-241 245.5,-247 239.5,-253 233.5,-253 233.5,-253 173,-253 173,-253 167,-253 161,-247 161,-241 161,-241 161,-153 161,-153 161,-147 167,-141 173,-141"/>
<text text-anchor="middle" x="203.25" y="-240.45" font-family="Helvetica,sans-Serif" font-weight="bold" font-size="9.00">pages</text>
</g>
<g id="clust5" class="cluster">
<title>cluster_src/shared</title>
<path fill="#ffffff" stroke="black" stroke-width="2" d="M276.12,-16C276.12,-16 529.38,-16 529.38,-16 535.38,-16 541.38,-22 541.38,-28 541.38,-28 541.38,-124 541.38,-124 541.38,-130 535.38,-136 529.38,-136 529.38,-136 276.12,-136 276.12,-136 270.12,-136 264.12,-130 264.12,-124 264.12,-124 264.12,-28 264.12,-28 264.12,-22 270.12,-16 276.12,-16"/>
<text text-anchor="middle" x="402.75" y="-123.45" font-family="Helvetica,sans-Serif" font-weight="bold" font-size="9.00">shared</text>
</g>
<g id="clust6" class="cluster">
<title>cluster_src/shared/ui</title>
<path fill="#ffffff" stroke="black" stroke-width="2" d="M284.12,-24C284.12,-24 521.38,-24 521.38,-24 527.38,-24 533.38,-30 533.38,-36 533.38,-36 533.38,-98 533.38,-98 533.38,-104 527.38,-110 521.38,-110 521.38,-110 284.12,-110 284.12,-110 278.12,-110 272.12,-104 272.12,-98 272.12,-98 272.12,-36 272.12,-36 272.12,-30 278.12,-24 284.12,-24"/>
<text text-anchor="middle" x="402.75" y="-97.45" font-family="Helvetica,sans-Serif" font-weight="bold" font-size="9.00">ui</text>
</g>
<g id="clust7" class="cluster">
<title>cluster_src/shared/ui/layout</title>
<path fill="#ffffff" stroke="black" stroke-width="2" d="M355.62,-32C355.62,-32 513.38,-32 513.38,-32 519.38,-32 525.38,-38 525.38,-44 525.38,-44 525.38,-72 525.38,-72 525.38,-78 519.38,-84 513.38,-84 513.38,-84 355.62,-84 355.62,-84 349.62,-84 343.62,-78 343.62,-72 343.62,-72 343.62,-44 343.62,-44 343.62,-38 349.62,-32 355.62,-32"/>
<text text-anchor="middle" x="434.5" y="-71.45" font-family="Helvetica,sans-Serif" font-weight="bold" font-size="9.00">layout</text>
</g>
<g id="clust8" class="cluster">
<title>cluster_src/widgets</title>
<path fill="#ffffff" stroke="black" stroke-width="2" d="M276.12,-144C276.12,-144 530.88,-144 530.88,-144 536.88,-144 542.88,-150 542.88,-156 542.88,-156 542.88,-252 542.88,-252 542.88,-258 536.88,-264 530.88,-264 530.88,-264 276.12,-264 276.12,-264 270.12,-264 264.12,-258 264.12,-252 264.12,-252 264.12,-156 264.12,-156 264.12,-150 270.12,-144 276.12,-144"/>
<text text-anchor="middle" x="403.5" y="-251.45" font-family="Helvetica,sans-Serif" font-weight="bold" font-size="9.00">widgets</text>
</g>
<g id="clust9" class="cluster">
<title>cluster_src/widgets/header</title>
<path fill="#ffffff" stroke="black" stroke-width="2" d="M284.12,-152C284.12,-152 522.88,-152 522.88,-152 528.88,-152 534.88,-158 534.88,-164 534.88,-164 534.88,-226 534.88,-226 534.88,-232 528.88,-238 522.88,-238 522.88,-238 284.12,-238 284.12,-238 278.12,-238 272.12,-232 272.12,-226 272.12,-226 272.12,-164 272.12,-164 272.12,-158 278.12,-152 284.12,-152"/>
<text text-anchor="middle" x="403.5" y="-225.45" font-family="Helvetica,sans-Serif" font-weight="bold" font-size="9.00">header</text>
</g>
<g id="clust10" class="cluster">
<title>cluster_src/widgets/header/ui</title>
<path fill="#ffffff" stroke="black" stroke-width="2" d="M354.12,-160C354.12,-160 514.88,-160 514.88,-160 520.88,-160 526.88,-166 526.88,-172 526.88,-172 526.88,-200 526.88,-200 526.88,-206 520.88,-212 514.88,-212 514.88,-212 354.12,-212 354.12,-212 348.12,-212 342.12,-206 342.12,-200 342.12,-200 342.12,-172 342.12,-172 342.12,-166 348.12,-160 354.12,-160"/>
<text text-anchor="middle" x="434.5" y="-199.45" font-family="Helvetica,sans-Serif" font-weight="bold" font-size="9.00">ui</text>
</g>
<!-- src/app/App.tsx -->
<g id="node1" class="node">
<title>src/app/App.tsx</title>
<g id="a_node1"><a xlink:href="src/app/App.tsx" xlink:title="App.tsx">
<path fill="#bbfeff" stroke="black" d="M144.46,-76.88C144.46,-76.88 102.29,-76.88 102.29,-76.88 99.33,-76.88 96.38,-73.92 96.38,-70.96 96.38,-70.96 96.38,-65.04 96.38,-65.04 96.38,-62.08 99.33,-59.12 102.29,-59.12 102.29,-59.12 144.46,-59.12 144.46,-59.12 147.42,-59.12 150.38,-62.08 150.38,-65.04 150.38,-65.04 150.38,-70.96 150.38,-70.96 150.38,-73.92 147.42,-76.88 144.46,-76.88"/>
<text text-anchor="start" x="108.38" y="-64.33" font-family="Helvetica,sans-Serif" font-size="9.00">App.tsx</text>
</a>
</g>
</g>
<!-- src/app/layouts/AppLayout.tsx -->
<g id="node2" class="node">
<title>src/app/layouts/AppLayout.tsx</title>
<g id="a_node2"><a xlink:href="src/app/layouts/AppLayout.tsx" xlink:title="AppLayout.tsx">
<path fill="#bbfeff" stroke="black" d="M234.21,-80.88C234.21,-80.88 172.29,-80.88 172.29,-80.88 169.33,-80.88 166.38,-77.92 166.38,-74.96 166.38,-74.96 166.38,-69.04 166.38,-69.04 166.38,-66.08 169.33,-63.12 172.29,-63.12 172.29,-63.12 234.21,-63.12 234.21,-63.12 237.17,-63.12 240.12,-66.08 240.12,-69.04 240.12,-69.04 240.12,-74.96 240.12,-74.96 240.12,-77.92 237.17,-80.88 234.21,-80.88"/>
<text text-anchor="start" x="174.38" y="-68.33" font-family="Helvetica,sans-Serif" font-size="9.00">AppLayout.tsx</text>
</a>
</g>
</g>
<!-- src/app/App.tsx&#45;&gt;src/app/layouts/AppLayout.tsx -->
<g id="edge1" class="edge">
<title>src/app/App.tsx&#45;&gt;src/app/layouts/AppLayout.tsx</title>
<path fill="none" stroke="#000000" stroke-width="2" stroke-opacity="0.200000" d="M150.74,-69.35C152.9,-69.47 155.12,-69.58 157.37,-69.69"/>
<polygon fill="#000000" fill-opacity="0.200000" stroke="#000000" stroke-width="2" stroke-opacity="0.200000" points="156.98,-71.78 163.08,-69.99 157.2,-67.58 156.98,-71.78"/>
</g>
<!-- src/pages/about.tsx -->
<g id="node3" class="node">
<title>src/pages/about.tsx</title>
<g id="a_node3"><a xlink:href="src/pages/about.tsx" xlink:title="about.tsx">
<path fill="#bbfeff" stroke="black" d="M224.33,-166.88C224.33,-166.88 182.17,-166.88 182.17,-166.88 179.21,-166.88 176.25,-163.92 176.25,-160.96 176.25,-160.96 176.25,-155.04 176.25,-155.04 176.25,-152.08 179.21,-149.12 182.17,-149.12 182.17,-149.12 224.33,-149.12 224.33,-149.12 227.29,-149.12 230.25,-152.08 230.25,-155.04 230.25,-155.04 230.25,-160.96 230.25,-160.96 230.25,-163.92 227.29,-166.88 224.33,-166.88"/>
<text text-anchor="start" x="184.88" y="-154.32" font-family="Helvetica,sans-Serif" font-size="9.00">about.tsx</text>
</a>
</g>
</g>
<!-- src/app/App.tsx&#45;&gt;src/pages/about.tsx -->
<g id="edge2" class="edge">
<title>src/app/App.tsx&#45;&gt;src/pages/about.tsx</title>
<path fill="none" stroke="#000000" stroke-width="2" stroke-opacity="0.200000" d="M144.4,-77.34C146.63,-78.99 148.7,-80.87 150.38,-83 158.13,-92.83 152.22,-99.1 158.38,-110 165.28,-122.22 175.82,-133.89 184.85,-142.66"/>
<polygon fill="#000000" fill-opacity="0.200000" stroke="#000000" stroke-width="2" stroke-opacity="0.200000" points="183.34,-144.13 189.15,-146.7 186.21,-141.06 183.34,-144.13"/>
</g>
<!-- src/pages/home.tsx -->
<g id="node4" class="node">
<title>src/pages/home.tsx</title>
<g id="a_node4"><a xlink:href="src/pages/home.tsx" xlink:title="home.tsx">
<path fill="#bbfeff" stroke="black" d="M224.33,-196.88C224.33,-196.88 182.17,-196.88 182.17,-196.88 179.21,-196.88 176.25,-193.92 176.25,-190.96 176.25,-190.96 176.25,-185.04 176.25,-185.04 176.25,-182.08 179.21,-179.12 182.17,-179.12 182.17,-179.12 224.33,-179.12 224.33,-179.12 227.29,-179.12 230.25,-182.08 230.25,-185.04 230.25,-185.04 230.25,-190.96 230.25,-190.96 230.25,-193.92 227.29,-196.88 224.33,-196.88"/>
<text text-anchor="start" x="184.88" y="-184.32" font-family="Helvetica,sans-Serif" font-size="9.00">home.tsx</text>
</a>
</g>
</g>
<!-- src/app/App.tsx&#45;&gt;src/pages/home.tsx -->
<g id="edge3" class="edge">
<title>src/app/App.tsx&#45;&gt;src/pages/home.tsx</title>
<path fill="none" stroke="#000000" stroke-width="2" stroke-opacity="0.200000" d="M145.06,-77.24C147.13,-78.89 148.97,-80.8 150.38,-83 161.18,-99.93 145.98,-157.2 158.38,-173 160.9,-176.22 164.16,-178.76 167.75,-180.75"/>
<polygon fill="#000000" fill-opacity="0.200000" stroke="#000000" stroke-width="2" stroke-opacity="0.200000" points="166.89,-182.66 173.23,-183.11 168.55,-178.81 166.89,-182.66"/>
</g>
<!-- src/pages/not&#45;found.tsx -->
<g id="node5" class="node">
<title>src/pages/not&#45;found.tsx</title>
<g id="a_node5"><a xlink:href="src/pages/not-found.tsx" xlink:title="not&#45;found.tsx">
<path fill="#bbfeff" stroke="black" d="M231.58,-226.88C231.58,-226.88 174.92,-226.88 174.92,-226.88 171.96,-226.88 169,-223.92 169,-220.96 169,-220.96 169,-215.04 169,-215.04 169,-212.08 171.96,-209.12 174.92,-209.12 174.92,-209.12 231.58,-209.12 231.58,-209.12 234.54,-209.12 237.5,-212.08 237.5,-215.04 237.5,-215.04 237.5,-220.96 237.5,-220.96 237.5,-223.92 234.54,-226.88 231.58,-226.88"/>
<text text-anchor="start" x="177" y="-214.32" font-family="Helvetica,sans-Serif" font-size="9.00">not&#45;found.tsx</text>
</a>
</g>
</g>
<!-- src/app/App.tsx&#45;&gt;src/pages/not&#45;found.tsx -->
<g id="edge4" class="edge">
<title>src/app/App.tsx&#45;&gt;src/pages/not&#45;found.tsx</title>
<path fill="none" stroke="#000000" stroke-width="2" stroke-opacity="0.200000" d="M145.11,-77.21C147.17,-78.87 149,-80.79 150.38,-83 164.5,-105.69 142.12,-181.79 158.38,-203 159.32,-204.23 160.37,-205.36 161.5,-206.4"/>
<polygon fill="#000000" fill-opacity="0.200000" stroke="#000000" stroke-width="2" stroke-opacity="0.200000" points="160.15,-208.01 166.28,-209.68 162.52,-204.55 160.15,-208.01"/>
</g>
<!-- src/shared/ui/index.ts -->
<g id="node8" class="node">
<title>src/shared/ui/index.ts</title>
<g id="a_node8"><a xlink:href="src/shared/ui/index.ts" xlink:title="index.ts">
<path fill="#ddfeff" stroke="black" d="M328.21,-70.88C328.21,-70.88 286.04,-70.88 286.04,-70.88 283.08,-70.88 280.12,-67.92 280.12,-64.96 280.12,-64.96 280.12,-59.04 280.12,-59.04 280.12,-56.08 283.08,-53.12 286.04,-53.12 286.04,-53.12 328.21,-53.12 328.21,-53.12 331.17,-53.12 334.12,-56.08 334.12,-59.04 334.12,-59.04 334.12,-64.96 334.12,-64.96 334.12,-67.92 331.17,-70.88 328.21,-70.88"/>
<text text-anchor="start" x="291.38" y="-58.33" font-family="Helvetica,sans-Serif" font-size="9.00">index.ts</text>
</a>
</g>
</g>
<!-- src/app/layouts/AppLayout.tsx&#45;&gt;src/shared/ui/index.ts -->
<g id="edge7" class="edge">
<title>src/app/layouts/AppLayout.tsx&#45;&gt;src/shared/ui/index.ts</title>
<path fill="none" stroke="#000000" stroke-width="2" stroke-opacity="0.200000" d="M240.45,-68.45C250.35,-67.47 261.06,-66.42 270.9,-65.46"/>
<polygon fill="#000000" fill-opacity="0.200000" stroke="#000000" stroke-width="2" stroke-opacity="0.200000" points="270.86,-67.57 276.63,-64.9 270.45,-63.39 270.86,-67.57"/>
</g>
<!-- src/widgets/header/index.ts -->
<g id="node9" class="node">
<title>src/widgets/header/index.ts</title>
<g id="a_node9"><a xlink:href="src/widgets/header/index.ts" xlink:title="index.ts">
<path fill="#ddfeff" stroke="black" d="M328.21,-181.88C328.21,-181.88 286.04,-181.88 286.04,-181.88 283.08,-181.88 280.12,-178.92 280.12,-175.96 280.12,-175.96 280.12,-170.04 280.12,-170.04 280.12,-167.08 283.08,-164.12 286.04,-164.12 286.04,-164.12 328.21,-164.12 328.21,-164.12 331.17,-164.12 334.12,-167.08 334.12,-170.04 334.12,-170.04 334.12,-175.96 334.12,-175.96 334.12,-178.92 331.17,-181.88 328.21,-181.88"/>
<text text-anchor="start" x="291.38" y="-169.32" font-family="Helvetica,sans-Serif" font-size="9.00">index.ts</text>
</a>
</g>
</g>
<!-- src/app/layouts/AppLayout.tsx&#45;&gt;src/widgets/header/index.ts -->
<g id="edge8" class="edge">
<title>src/app/layouts/AppLayout.tsx&#45;&gt;src/widgets/header/index.ts</title>
<path fill="none" stroke="#000000" stroke-width="2" stroke-opacity="0.200000" d="M213.65,-81.32C231.16,-98.68 268.94,-136.14 290.4,-157.41"/>
<polygon fill="#000000" fill-opacity="0.200000" stroke="#000000" stroke-width="2" stroke-opacity="0.200000" points="288.86,-158.84 294.6,-161.57 291.81,-155.85 288.86,-158.84"/>
</g>
<!-- src/app/entry.css -->
<g id="node6" class="node">
<title>src/app/entry.css</title>
<g id="a_node6"><a xlink:href="src/app/entry.css" xlink:title="entry.css">
<path fill="#ffffcc" stroke="black" d="M144.46,-106.88C144.46,-106.88 102.29,-106.88 102.29,-106.88 99.33,-106.88 96.38,-103.92 96.38,-100.96 96.38,-100.96 96.38,-95.04 96.38,-95.04 96.38,-92.08 99.33,-89.12 102.29,-89.12 102.29,-89.12 144.46,-89.12 144.46,-89.12 147.42,-89.12 150.38,-92.08 150.38,-95.04 150.38,-95.04 150.38,-100.96 150.38,-100.96 150.38,-103.92 147.42,-106.88 144.46,-106.88"/>
<text text-anchor="start" x="105.38" y="-94.33" font-family="Helvetica,sans-Serif" font-size="9.00">entry.css</text>
</a>
</g>
</g>
<!-- src/app/entry.tsx -->
<g id="node7" class="node">
<title>src/app/entry.tsx</title>
<g id="a_node7"><a xlink:href="src/app/entry.tsx" xlink:title="entry.tsx">
<path fill="#bbfeff" stroke="black" d="M72.08,-91.88C72.08,-91.88 29.92,-91.88 29.92,-91.88 26.96,-91.88 24,-88.92 24,-85.96 24,-85.96 24,-80.04 24,-80.04 24,-77.08 26.96,-74.12 29.92,-74.12 29.92,-74.12 72.08,-74.12 72.08,-74.12 75.04,-74.12 78,-77.08 78,-80.04 78,-80.04 78,-85.96 78,-85.96 78,-88.92 75.04,-91.88 72.08,-91.88"/>
<text text-anchor="start" x="34.12" y="-79.33" font-family="Helvetica,sans-Serif" font-size="9.00">entry.tsx</text>
</a>
</g>
</g>
<!-- src/app/entry.tsx&#45;&gt;src/app/App.tsx -->
<g id="edge5" class="edge">
<title>src/app/entry.tsx&#45;&gt;src/app/App.tsx</title>
<path fill="none" stroke="#000000" stroke-width="2" stroke-opacity="0.200000" d="M78.21,-77.41C81.19,-76.78 84.26,-76.12 87.33,-75.47"/>
<polygon fill="#000000" fill-opacity="0.200000" stroke="#000000" stroke-width="2" stroke-opacity="0.200000" points="87.52,-77.58 92.95,-74.27 86.65,-73.47 87.52,-77.58"/>
</g>
<!-- src/app/entry.tsx&#45;&gt;src/app/entry.css -->
<g id="edge6" class="edge">
<title>src/app/entry.tsx&#45;&gt;src/app/entry.css</title>
<path fill="none" stroke="#000000" stroke-width="2" stroke-opacity="0.200000" d="M78.21,-88.59C81.19,-89.22 84.26,-89.88 87.33,-90.53"/>
<polygon fill="#000000" fill-opacity="0.200000" stroke="#000000" stroke-width="2" stroke-opacity="0.200000" points="86.65,-92.53 92.95,-91.73 87.52,-88.42 86.65,-92.53"/>
</g>
<!-- src/shared/ui/layout/Layout.tsx -->
<g id="node10" class="node">
<title>src/shared/ui/layout/Layout.tsx</title>
<g id="a_node10"><a xlink:href="src/shared/ui/layout/Layout.tsx" xlink:title="Layout.tsx">
<path fill="#bbfeff" stroke="black" d="M402.96,-57.88C402.96,-57.88 357.54,-57.88 357.54,-57.88 354.58,-57.88 351.62,-54.92 351.62,-51.96 351.62,-51.96 351.62,-46.04 351.62,-46.04 351.62,-43.08 354.58,-40.12 357.54,-40.12 357.54,-40.12 402.96,-40.12 402.96,-40.12 405.92,-40.12 408.88,-43.08 408.88,-46.04 408.88,-46.04 408.88,-51.96 408.88,-51.96 408.88,-54.92 405.92,-57.88 402.96,-57.88"/>
<text text-anchor="start" x="359.62" y="-45.33" font-family="Helvetica,sans-Serif" font-size="9.00">Layout.tsx</text>
</a>
</g>
</g>
<!-- src/shared/ui/index.ts&#45;&gt;src/shared/ui/layout/Layout.tsx -->
<g id="edge9" class="edge">
<title>src/shared/ui/index.ts&#45;&gt;src/shared/ui/layout/Layout.tsx</title>
<path fill="none" stroke="#000000" stroke-width="2" stroke-opacity="0.200000" d="M334.61,-57.16C337.89,-56.56 341.29,-55.94 344.67,-55.32"/>
<polygon fill="#000000" fill-opacity="0.200000" stroke="#000000" stroke-width="2" stroke-opacity="0.200000" points="350.95,-56.31 344.67,-55.32 350.19,-52.18 350.95,-56.31"/>
</g>
<!-- src/widgets/header/ui/Header.tsx -->
<g id="node13" class="node">
<title>src/widgets/header/ui/Header.tsx</title>
<g id="a_node13"><a xlink:href="src/widgets/header/ui/Header.tsx" xlink:title="Header.tsx">
<path fill="#bbfeff" stroke="black" d="M404.46,-185.88C404.46,-185.88 356.04,-185.88 356.04,-185.88 353.08,-185.88 350.12,-182.92 350.12,-179.96 350.12,-179.96 350.12,-174.04 350.12,-174.04 350.12,-171.08 353.08,-168.12 356.04,-168.12 356.04,-168.12 404.46,-168.12 404.46,-168.12 407.42,-168.12 410.38,-171.08 410.38,-174.04 410.38,-174.04 410.38,-179.96 410.38,-179.96 410.38,-182.92 407.42,-185.88 404.46,-185.88"/>
<text text-anchor="start" x="358.12" y="-173.32" font-family="Helvetica,sans-Serif" font-size="9.00">Header.tsx</text>
</a>
</g>
</g>
<!-- src/widgets/header/index.ts&#45;&gt;src/widgets/header/ui/Header.tsx -->
<g id="edge11" class="edge">
<title>src/widgets/header/index.ts&#45;&gt;src/widgets/header/ui/Header.tsx</title>
<path fill="none" stroke="#000000" stroke-width="2" stroke-opacity="0.200000" d="M334.61,-174.49C337.21,-174.64 339.88,-174.79 342.56,-174.94"/>
<polygon fill="#000000" fill-opacity="0.200000" stroke="#000000" stroke-width="2" stroke-opacity="0.200000" points="348.52,-177.37 342.64,-174.94 348.75,-173.18 348.52,-177.37"/>
</g>
<!-- src/shared/ui/layout/Layout.module.css -->
<g id="node11" class="node">
<title>src/shared/ui/layout/Layout.module.css</title>
<g id="a_node11"><a xlink:href="src/shared/ui/layout/Layout.module.css" xlink:title="Layout.module.css">
<path fill="#ffffcc" stroke="black" d="M511.46,-57.88C511.46,-57.88 430.79,-57.88 430.79,-57.88 427.83,-57.88 424.88,-54.92 424.88,-51.96 424.88,-51.96 424.88,-46.04 424.88,-46.04 424.88,-43.08 427.83,-40.12 430.79,-40.12 430.79,-40.12 511.46,-40.12 511.46,-40.12 514.42,-40.12 517.38,-43.08 517.38,-46.04 517.38,-46.04 517.38,-51.96 517.38,-51.96 517.38,-54.92 514.42,-57.88 511.46,-57.88"/>
<text text-anchor="start" x="432.88" y="-45.33" font-family="Helvetica,sans-Serif" font-size="9.00">Layout.module.css</text>
</a>
</g>
</g>
<!-- src/shared/ui/layout/Layout.tsx&#45;&gt;src/shared/ui/layout/Layout.module.css -->
<g id="edge10" class="edge">
<title>src/shared/ui/layout/Layout.tsx&#45;&gt;src/shared/ui/layout/Layout.module.css</title>
<path fill="none" stroke="#000000" stroke-width="2" stroke-opacity="0.200000" d="M409.37,-49C411.51,-49 413.7,-49 415.93,-49"/>
<polygon fill="#000000" fill-opacity="0.200000" stroke="#000000" stroke-width="2" stroke-opacity="0.200000" points="415.62,-51.1 421.62,-49 415.62,-46.9 415.62,-51.1"/>
</g>
<!-- src/vite&#45;env.d.ts -->
<g id="node12" class="node">
<title>src/vite&#45;env.d.ts</title>
<g id="a_node12"><a xlink:href="src/vite-env.d.ts" xlink:title="vite&#45;env.d.ts">
<path fill="#ccffcc" stroke="black" d="M77.46,-222.88C77.46,-222.88 24.54,-222.88 24.54,-222.88 21.58,-222.88 18.62,-219.92 18.62,-216.96 18.62,-216.96 18.62,-211.04 18.62,-211.04 18.62,-208.08 21.58,-205.12 24.54,-205.12 24.54,-205.12 77.46,-205.12 77.46,-205.12 80.42,-205.12 83.38,-208.08 83.38,-211.04 83.38,-211.04 83.38,-216.96 83.38,-216.96 83.38,-219.92 80.42,-222.88 77.46,-222.88"/>
<text text-anchor="start" x="26.62" y="-210.32" font-family="Helvetica,sans-Serif" font-size="9.00">vite&#45;env.d.ts</text>
</a>
</g>
</g>
<!-- src/widgets/header/ui/Header.module.css -->
<g id="node14" class="node">
<title>src/widgets/header/ui/Header.module.css</title>
<g id="a_node14"><a xlink:href="src/widgets/header/ui/Header.module.css" xlink:title="Header.module.css">
<path fill="#ffffcc" stroke="black" d="M512.96,-185.88C512.96,-185.88 429.29,-185.88 429.29,-185.88 426.33,-185.88 423.38,-182.92 423.38,-179.96 423.38,-179.96 423.38,-174.04 423.38,-174.04 423.38,-171.08 426.33,-168.12 429.29,-168.12 429.29,-168.12 512.96,-168.12 512.96,-168.12 515.92,-168.12 518.88,-171.08 518.88,-174.04 518.88,-174.04 518.88,-179.96 518.88,-179.96 518.88,-182.92 515.92,-185.88 512.96,-185.88"/>
<text text-anchor="start" x="431.38" y="-173.32" font-family="Helvetica,sans-Serif" font-size="9.00">Header.module.css</text>
</a>
</g>
</g>
<!-- src/widgets/header/ui/Header.tsx&#45;&gt;src/widgets/header/ui/Header.module.css -->
<g id="edge12" class="edge">
<title>src/widgets/header/ui/Header.tsx&#45;&gt;src/widgets/header/ui/Header.module.css</title>
<path fill="none" stroke="#000000" stroke-width="2" stroke-opacity="0.200000" d="M410.84,-177C411.95,-177 413.07,-177 414.21,-177"/>
<polygon fill="#000000" fill-opacity="0.200000" stroke="#000000" stroke-width="2" stroke-opacity="0.200000" points="414.02,-179.1 420.02,-177 414.02,-174.9 414.02,-179.1"/>
</g>
</g>
</svg>
